<?xml version="1.0" encoding="utf-8"?>
<!-- Generator: Adobe Illustrator 18.1.1, SVG Export Plug-In . SVG Version: 6.00 Build 0)  -->
<!DOCTYPE svg PUBLIC "-//W3C//DTD SVG 1.1//EN" "http://www.w3.org/Graphics/SVG/1.1/DTD/svg11.dtd">
<svg version="1.1" id="Layer_1" xmlns="http://www.w3.org/2000/svg" xmlns:xlink="http://www.w3.org/1999/xlink" x="0px" y="0px"
	 viewBox="0 0 200 100" enable-background="new 0 0 200 100" xml:space="preserve">
<path d="M197.9,66c0,0.3,0,0.6,0,0.9c-0.5,1.4-1.4,2.6-2.4,3.7c-2,2.2-4.3,3.9-7.3,4.3c-3.1,0.4-5.7-0.5-7.6-3
	c-1.1-1.5-3.1-7.4-3.6-7.8c-0.7,1.6-4.3,7.2-5.2,8c-0.8,0.7-1.6,1.4-2.4,1.9c-1.9,1.2-4,0.9-5.6-0.6c-0.8-0.8-1.4-1.7-1.8-2.8
	c-0.7-1.8-1.1-3.7-0.4-5.7c0.6-1.7,1.8-2.7,3.5-3.1c0.7-0.2,1.1,0.1,1.3,0.8c0.1,0.3,0.1,0.6,0.1,0.8c0.2,0.8,0.6,1.4,1.4,1.6
	c0.8,0.2,1.4-0.1,1.8-0.7c1.1-1.5,2.6-3.2,3.7-4.7c0.3-0.4,0.3-0.8,0.1-1.2c-0.4-0.9-0.8-1.7-1.1-2.5c-0.7-1.5-1.7-2.9-2.8-4.1
	c-0.5-0.6-1.1-0.8-1.8-0.7c-0.7,0.1-1.5,0.2-2.2,0c-1.3-0.3-2.5-0.8-3.8-1.1c-0.1,0-0.3-0.1-0.4,0c-0.1,0.1-0.1,0.3-0.1,0.4
	c0.2,1.2,0.4,2.4,0.6,3.6c0.3,2.3,0.3,4.6,0,6.9c-0.5,3.6-2.2,6.6-4.3,9.5c-2.5,3.5-5.8,5.6-10.2,5.9c-3.6,0.2-6.7-0.9-9.1-3.6
	c-3-3.5-4-7.7-4.1-12.1c0-0.7,0.1-1.3,0.1-2.1c-1.3,0.5-2.5,1-3.7,1.4c0.1,0.2,0.2,0.3,0.2,0.5c1,2.3,2.1,4.5,2.9,6.8
	c1.1,2.9,1.8,5.8,1.7,8.9c-0.1,3.2-0.7,6.3-1.5,9.3c-0.8,2.8-1.8,5.6-3.5,8c-1.4,1.9-3,3.4-5.3,4c-0.3,0.1-0.7,0.2-1,0.3
	c-0.9,0-1.7,0-2.6,0c-0.3-0.1-0.6-0.2-0.8-0.3c-2.3-0.7-3.7-2.3-4.8-4.2c-1.6-2.9-2.2-6.1-2.7-9.3c-0.6-3.9-0.5-7.9-0.2-11.8
	c0-0.3,0-0.6,0-1c-2.9,1.7-5.9,3-9.1,3.5c-3.1,0.5-6.1,0.3-9-1.2c-1.9-1-3.4-2.4-3.8-4.5c-0.6-3-0.3-5.8,1.1-8.5
	c1.3-2.7,3.2-4.8,5.8-6.1c1.4-0.7,2.9-1.1,4.4-1.7c0.7-0.3,1.3-0.7,1.9-1.1c0.6-0.5,0.7-1.3,0.3-2.1c-0.7-1.2-2.3-1.5-3.6-0.6
	c-2.9,2.1-5.3,4.7-7.1,7.8c-2.1,3.6-4,7.3-6,11c-1.1,1.9-2.1,3.9-3.3,5.7c-1.8,2.6-5.8,2.2-7.1-0.6c-0.3-0.6-0.4-1.3-0.6-1.9
	c-0.1-0.7-0.2-1.4-0.3-2.1c-1,0.6-1.9,1.1-2.8,1.7c-3.3,1.9-6.7,3.7-10.4,4.5c-2.9,0.7-5.1-0.2-6.8-2.6c-1.1-1.5-2-3.2-2.7-5
	c-0.1-0.3-0.2-0.6-0.4-0.8c-0.1,0.1-0.2,0.1-0.3,0.2c-1.1,0.9-2.1,1.9-3.3,2.7c-9.6,6.8-20.3,9.6-31.9,9.2
	c-3.7-0.1-7.2-0.9-10.5-2.6c-4.1-2.1-6.9-5.3-8.2-9.8C-1,65-1.2,64.2-1.4,63.3c0-1.4,0-2.9,0-4.3c0.1-0.4,0.2-0.8,0.2-1.1
	c0.7-4.3,2.5-7.9,5.8-10.8c3.3-2.9,7.3-4.5,11.6-5.3c1.4-0.2,2.8-0.4,4.2-0.6c-1-0.2-1.9-0.3-2.9-0.5c-3-0.7-5.7-1.9-7.8-4.3
	c-3.4-3.8-4.4-8.4-3.4-13.3c0.8-3.8,3.2-6.6,6.3-8.8c3.8-2.6,8-3.8,12.5-4.5c4.6-0.7,9.1-0.5,13.6,0.4c3.5,0.7,6.8,1.9,9.6,4
	c3.2,2.3,5.4,5.3,5.8,9.4c0.1,1.1,0.2,2.3-0.5,3.3c-0.8,1.3-1.8,2.5-3,3.4c-1.3,1-2.7,1.6-4.2,1.9c-0.7,0.1-1.1-0.1-1.1-0.7
	c0-0.8-0.1-1.6,0.1-2.4c0.4-2,0.9-4,1.4-6c0.1-0.4,0-0.6-0.3-0.8c-0.5-0.3-1-0.6-1.5-0.8C39.3,19,33.4,17.8,27.2,18
	c-2.4,0.1-4.7,0.5-6.9,1.6c-4,2-5.6,7-3.5,10.8c1.1,2.1,2.9,3.3,5.1,4c2.4,0.8,4.9,1.5,7.3,2.3c1.5,0.5,2.9,1,4.2,2
	c0.7,0.6,1.3,1.3,1.4,2.3c0.1,1.5,0.2,3,0.1,4.5c0,1.5-0.8,2.3-2.3,2.6c-0.5,0.1-1.1,0.1-1.7,0.1c-2,0-3.9-0.2-5.9-0.1
	c-3.2,0-6.2,0.8-9,2.3c-4.1,2.1-7.2,6.1-6.4,11.6c0.3,1.9,0.8,3.7,2.1,5.2c1.7,1.9,4,2.6,6.5,2.8c3.2,0.3,6.3-0.1,9.4-0.8
	c5.6-1.4,10.9-3.5,16-6.1c2.9-1.5,5.5-3.4,7.5-6c0.1-0.2,0.2-0.5,0.2-0.8c0-1.2-0.1-2.3-0.1-3.5c0-3.1,0.3-6.2,0.8-9.3
	c1.3-8.2,3.5-16.1,6.8-23.8c2-4.5,4.3-8.9,7.6-12.6c1.9-2.2,4.1-4,7-4.7c0.1,0,0.2-0.1,0.3-0.2c0.9,0,1.8,0,2.7,0
	c0.6,0.3,1.3,0.6,1.8,1c1.3,1,1.8,2.5,2.1,4c0.6,3.3,0.4,6.6-0.3,9.8c-1.1,5.5-3,10.8-5.6,15.8c-3,5.9-6.2,11.7-9.2,17.5
	c-1.2,2.3-2.4,4.5-3.2,7c-0.7,2.5-0.8,5,0.5,7.4c0.5,0.9,0.8,1.1,1.9,0.8c1.5-0.4,2.9-1,4.2-1.9c2.4-1.6,4.8-3.3,7.2-4.9
	c0.5-0.3,0.7-0.7,0.7-1.3c0.5-5.2,1.2-8,1.7-13.2c0.5-4.9,1.6-12.1,2.7-16.8c1.2-5.1,2.7-10.2,5.1-14.9c1.3-2.6,2.9-5,5.1-6.9
	c2.5-2.2,5.4-3.4,8.8-3c2.1,0.3,3.7,1.3,4.5,3.3c1,2.3,0.8,1.2,0.8,4.9c0,3-0.5,5.9-1.2,8.8c-1.8,7.2-5.4,14-8.5,20.7
	c-2.1,4.4-4.6,8.4-7.4,12.3c-0.3,0.4-0.3,0.7,0.1,1c0.1-0.1,0.2-0.2,0.3-0.4c2.2-2.7,3.8-5.9,6.1-8.5c4.1-4.7,10.4-5.8,14.7-2.8
	c0.9,0.6,2.4,3,2.8,4.1c0.8,1.9,0.9,3.9,0.4,6c-0.6,2.4-2.1,4.2-4.2,5.4c-2.1,1.2-4.4,1.9-6.7,2.5c-2.2,0.5-3,1.5-3.2,3.7
	c-0.1,1.1,0.2,2.2,1.3,2.7c0.7,0.3,1.5,0.6,2.2,0.7c1.8,0.2,3.4-0.4,4.9-1.2c2.4-1.3,4.5-2.9,5.8-5.4c0.4-0.7,0.8-1.5,0.9-2.3
	c0.7-4.3,1.2-8.6,1.8-13c0.9-5.9,2.1-11.7,3.8-17.4c1.3-4.5,2.8-9,5.1-13.2c1.5-2.7,3.2-5.3,5.6-7.3c2.3-1.9,4.9-3,7.9-2.5
	c3.3,0.5,5.7,2.3,6.6,5.7c0.6,2.1,0.5,4.1,0.1,6.2c-0.6,3.5-1.7,6.8-3.1,10c-3.8,8.9-8.6,17.2-14.5,24.9c-0.2,0.3-0.4,0.6-0.7,1.1
	c1-0.1,1.9-0.1,2.8-0.4c2.3-0.7,4.6-1.7,6.7-2.9c0.3-0.2,0.6-0.4,0.8-0.7c0.5-0.7,0.9-1.3,1.4-2c2.5-3.5,5.9-5.7,10.1-6.5
	c4.6-0.9,8.8,0.2,12.7,2.5c1.9,1.1,3.8,1.8,6,1.5c1.3-0.2,2.7-0.6,4-0.9c2.4-0.6,4.3,0.3,5.8,2.1c1.1,1.3,1.6,2.4,2.5,4.3
	c0.2,0.4,0.5,0.8,0.7,1.3c0.8-0.7,2.4-2.4,3.1-3.1c2.3-2.1,3.9-3.2,6.6-4.8c0.8-0.5,1.7-0.8,2.6-1c1.3-0.3,2.6,0.3,3.3,1.4
	c1.4,2.3,0.9,5.6-1.2,6.9c-3.8,2.4-7.8,3.7-11,6.9c-0.3,0.3-0.3,0.6-0.1,0.9c0.7,1.4,2.7,6.2,4.5,7.8c0.5,0.6,1.2,0.8,1.9,0.6
	c0.7-0.2,1.3-0.5,1.9-0.7c0.7-0.3,1.3-0.7,2-0.9C195.4,64,197.2,64.7,197.9,66z M154.6,55.6c0-0.7,0-1.2-0.1-1.8
	c-0.1-1.6-0.4-3.2-1.2-4.6c-1.2-2.3-3.6-2.8-5.6-1.1c-0.8,0.7-1.6,1.6-2.2,2.5c-2.3,3.5-3.2,7.4-3,11.5c0.1,1.9,0.4,3.6,1.6,5.1
	c1.7,2.1,4.4,2.2,6.3,0.4c0.4-0.4,0.8-0.9,1.1-1.3C153.6,62.9,154.5,59.2,154.6,55.6z M122.9,58l-0.2,0c-0.1,0.5-0.3,0.9-0.3,1.4
	c-0.3,2.5-0.5,5-0.8,7.6c-0.6,5.9-0.5,11.8,0.1,17.7c0.1,1.1,0.4,2.2,0.6,3.4c0.2,0.9,0.8,1.3,1.5,1.1c0.6-0.1,1.2-0.5,1.5-1.1
	c0.4-0.8,0.8-1.7,1.1-2.6c0.6-2.1,0.8-4.3,0.8-6.5c0.1-4.7-0.6-9.3-1.7-13.9c-0.5-2-0.9-4-1.9-5.8C123.5,58.8,123.2,58.4,122.9,58z
	 M125.3,43l0.1,0c0.1-0.1,0.2-0.3,0.3-0.5c2.5-4.7,5-9.3,7.5-14c1.8-3.4,3.6-6.8,4.9-10.4c0.5-1.5,0.4-2.9-0.2-4.4
	c-0.2-0.5-0.6-1-1.2-1.1c-1.4-0.2-2.7,0-3.5,1.4c-0.6,1.1-1.2,2.2-1.6,3.3c-3,7.5-5.3,15.1-6,23.2C125.4,41.4,125.4,42.2,125.3,43z
	 M61.1,44.2l0.1,0c0.1-0.1,0.2-0.3,0.2-0.4c1.4-2.8,2.9-5.6,4.3-8.5c2.5-5.1,4.7-10.4,6.1-15.9c0.6-2.1,1.2-4.2,1.1-6.4
	c0-0.4-1.2-2.2-2.5-0.6c-1.2,1.5-1.6,2.4-2.3,3.5c-2,3.8-2.5,5.1-3.5,7.9c-2.2,6.4-3.4,13-3.6,19.8C61.1,43.9,61.1,44.1,61.1,44.2z
	 M85.1,46.2l0.2,0c0.1-0.2,0.1-0.4,0.2-0.5c7.6-17.5,13.9-30,12.7-33.2c-0.2-0.5-0.8-0.8-1.3-0.7c-0.6,0.1-1.3,0.2-1.8,0.6
	c-0.7,0.6-0.7,0.6-1.7,2.1c-4.5,10.9-4.9,13.7-7.2,26C85.8,42.6,85.3,44.1,85.1,46.2z"/>
</svg>
