<?xml version="1.0" encoding="utf-8"?>
<!-- Generator: Adobe Illustrator 18.1.1, SVG Export Plug-In . SVG Version: 6.00 Build 0)  -->
<!DOCTYPE svg PUBLIC "-//W3C//DTD SVG 1.1//EN" "http://www.w3.org/Graphics/SVG/1.1/DTD/svg11.dtd">
<svg version="1.1" id="Layer_1" xmlns="http://www.w3.org/2000/svg" xmlns:xlink="http://www.w3.org/1999/xlink" x="0px" y="0px"
	 viewBox="0 0 100 100" enable-background="new 0 0 100 100" xml:space="preserve">
<path d="M28.6,16.1v10.7c0,1.5-0.5,2.8-1.6,3.8c-1,1-2.3,1.6-3.8,1.6H5.4c-1.5,0-2.8-0.5-3.8-1.6c-1-1-1.6-2.3-1.6-3.8V16.1
	c0-1.5,0.5-2.8,1.6-3.8c1-1,2.3-1.6,3.8-1.6h17.9c1.5,0,2.8,0.5,3.8,1.6C28.1,13.3,28.6,14.6,28.6,16.1z M28.6,44.6v10.7
	c0,1.5-0.5,2.8-1.6,3.8c-1,1-2.3,1.6-3.8,1.6H5.4c-1.5,0-2.8-0.5-3.8-1.6c-1-1-1.6-2.3-1.6-3.8V44.6c0-1.5,0.5-2.8,1.6-3.8
	c1-1,2.3-1.6,3.8-1.6h17.9c1.5,0,2.8,0.5,3.8,1.6C28.1,41.9,28.6,43.2,28.6,44.6z M28.6,73.2v10.7c0,1.5-0.5,2.8-1.6,3.8
	c-1,1-2.3,1.6-3.8,1.6H5.4c-1.5,0-2.8-0.5-3.8-1.6c-1-1-1.6-2.3-1.6-3.8V73.2c0-1.5,0.5-2.8,1.6-3.8c1-1,2.3-1.6,3.8-1.6h17.9
	c1.5,0,2.8,0.5,3.8,1.6C28.1,70.5,28.6,71.7,28.6,73.2z M100,16.1v10.7c0,1.5-0.5,2.8-1.6,3.8c-1,1-2.3,1.6-3.8,1.6H41.1
	c-1.5,0-2.8-0.5-3.8-1.6c-1-1-1.6-2.3-1.6-3.8V16.1c0-1.5,0.5-2.8,1.6-3.8c1-1,2.3-1.6,3.8-1.6h53.6c1.5,0,2.8,0.5,3.8,1.6
	C99.5,13.3,100,14.6,100,16.1z M100,44.6v10.7c0,1.5-0.5,2.8-1.6,3.8c-1,1-2.3,1.6-3.8,1.6H41.1c-1.5,0-2.8-0.5-3.8-1.6
	c-1-1-1.6-2.3-1.6-3.8V44.6c0-1.5,0.5-2.8,1.6-3.8c1-1,2.3-1.6,3.8-1.6h53.6c1.5,0,2.8,0.5,3.8,1.6C99.5,41.9,100,43.2,100,44.6z
	 M100,73.2v10.7c0,1.5-0.5,2.8-1.6,3.8c-1,1-2.3,1.6-3.8,1.6H41.1c-1.5,0-2.8-0.5-3.8-1.6c-1-1-1.6-2.3-1.6-3.8V73.2
	c0-1.5,0.5-2.8,1.6-3.8c1-1,2.3-1.6,3.8-1.6h53.6c1.5,0,2.8,0.5,3.8,1.6C99.5,70.5,100,71.7,100,73.2z"/>
</svg>
