<?xml version="1.0" encoding="utf-8"?>
<!-- Generator: Adobe Illustrator 18.1.1, SVG Export Plug-In . SVG Version: 6.00 Build 0)  -->
<!DOCTYPE svg PUBLIC "-//W3C//DTD SVG 1.1//EN" "http://www.w3.org/Graphics/SVG/1.1/DTD/svg11.dtd">
<svg version="1.1" id="Layer_1" xmlns="http://www.w3.org/2000/svg" xmlns:xlink="http://www.w3.org/1999/xlink" x="0px" y="0px"
	 viewBox="0 0 100 100" enable-background="new 0 0 100 100" xml:space="preserve">
<path d="M93.3,24.9c4.5,7.7,6.7,16,6.7,25.1s-2.2,17.4-6.7,25.1c-4.5,7.7-10.5,13.7-18.2,18.2c-7.7,4.5-16,6.7-25.1,6.7
	c-9.1,0-17.4-2.2-25.1-6.7c-7.7-4.5-13.7-10.5-18.2-18.2C2.2,67.4,0,59.1,0,50s2.2-17.4,6.7-25.1c4.5-7.7,10.5-13.7,18.2-18.2
	C32.6,2.2,40.9,0,50,0c9.1,0,17.4,2.2,25.1,6.7C82.8,11.2,88.8,17.2,93.3,24.9z M80.7,67.8c3.2-5.4,4.8-11.4,4.8-17.8
	s-1.6-12.3-4.8-17.8c-3.2-5.4-7.5-9.7-12.9-12.9c-5.4-3.2-11.4-4.8-17.8-4.8c-6.4,0-12.3,1.6-17.8,4.8c-5.4,3.2-9.7,7.5-12.9,12.9
	S14.6,43.6,14.6,50s1.6,12.3,4.8,17.8s7.5,9.7,12.9,12.9c5.4,3.2,11.3,4.8,17.8,4.8c6.4,0,12.3-1.6,17.8-4.8
	C73.2,77.5,77.5,73.2,80.7,67.8z M58.3,27.1v29.2c0,0.6-0.2,1.1-0.6,1.5c-0.4,0.4-0.9,0.6-1.5,0.6H35.4c-0.6,0-1.1-0.2-1.5-0.6
	c-0.4-0.4-0.6-0.9-0.6-1.5v-4.2c0-0.6,0.2-1.1,0.6-1.5c0.4-0.4,0.9-0.6,1.5-0.6H50V27.1c0-0.6,0.2-1.1,0.6-1.5
	c0.4-0.4,0.9-0.6,1.5-0.6h4.2c0.6,0,1.1,0.2,1.5,0.6S58.3,26.5,58.3,27.1z"/>
</svg>
