<?xml version="1.0" encoding="utf-8"?>
<!-- Generator: Adobe Illustrator 18.1.1, SVG Export Plug-In . SVG Version: 6.00 Build 0)  -->
<!DOCTYPE svg PUBLIC "-//W3C//DTD SVG 1.1//EN" "http://www.w3.org/Graphics/SVG/1.1/DTD/svg11.dtd">
<svg version="1.1" id="Layer_1" xmlns="http://www.w3.org/2000/svg" xmlns:xlink="http://www.w3.org/1999/xlink" x="0px" y="0px"
	 viewBox="0 0 100 100" enable-background="new 0 0 100 100" xml:space="preserve">
<path d="M100,43.2v13.6c0,1.9-0.7,3.5-2,4.8s-2.9,2-4.8,2H63.6v29.5c0,1.9-0.7,3.5-2,4.8s-2.9,2-4.8,2H43.2c-1.9,0-3.5-0.7-4.8-2
	s-2-2.9-2-4.8V63.6H6.8c-1.9,0-3.5-0.7-4.8-2s-2-2.9-2-4.8V43.2c0-1.9,0.7-3.5,2-4.8s2.9-2,4.8-2h29.5V6.8c0-1.9,0.7-3.5,2-4.8
	s2.9-2,4.8-2h13.6c1.9,0,3.5,0.7,4.8,2s2,2.9,2,4.8v29.5h29.5c1.9,0,3.5,0.7,4.8,2S100,41.3,100,43.2z"/>
</svg>
