<?xml version="1.0" encoding="utf-8"?>
<!-- Generator: Adobe Illustrator 18.1.1, SVG Export Plug-In . SVG Version: 6.00 Build 0)  -->
<!DOCTYPE svg PUBLIC "-//W3C//DTD SVG 1.1//EN" "http://www.w3.org/Graphics/SVG/1.1/DTD/svg11.dtd">
<svg version="1.1" id="Layer_1" xmlns="http://www.w3.org/2000/svg" xmlns:xlink="http://www.w3.org/1999/xlink" x="0px" y="0px"
	 viewBox="0 0 100 100" enable-background="new 0 0 100 100" xml:space="preserve">
<path d="M93.3,24.9c4.5,5.5,6.7,11.5,6.7,17.9c0,6.5-2.2,12.5-6.7,17.9c-4.5,5.5-10.5,9.8-18.2,13c-7.7,3.2-16,4.8-25.1,4.8
	c-2.6,0-5.3-0.1-8.1-0.4c-7.4,6.5-15.9,11-25.7,13.5c-1.8,0.5-3.9,0.9-6.4,1.2c-0.6,0.1-1.2-0.1-1.7-0.5c-0.5-0.4-0.8-0.9-1-1.6
	v-0.1c-0.1-0.1-0.1-0.4,0-0.7c0.1-0.3,0.1-0.5,0.1-0.6c0-0.1,0.1-0.3,0.3-0.5c0.2-0.3,0.3-0.4,0.3-0.5c0-0.1,0.2-0.2,0.4-0.5
	c0.2-0.3,0.4-0.4,0.4-0.5c0.3-0.3,0.8-0.9,1.7-1.9c0.9-1,1.5-1.7,1.9-2.1c0.4-0.4,1-1.2,1.7-2.2c0.8-1,1.4-2,1.8-2.8
	c0.4-0.9,0.9-2,1.5-3.3c0.6-1.3,1-2.8,1.4-4.2C13,67.5,8.4,63.4,5,58.5c-3.4-4.9-5-10.1-5-15.7C0,38,1.3,33.4,4,29
	c2.6-4.4,6.2-8.2,10.7-11.4c4.5-3.2,9.8-5.7,16-7.6S43.2,7.1,50,7.1c9.1,0,17.4,1.6,25.1,4.8C82.8,15.1,88.8,19.4,93.3,24.9z"/>
</svg>
