<?xml version="1.0" encoding="utf-8"?>
<!-- Generator: Adobe Illustrator 18.1.1, SVG Export Plug-In . SVG Version: 6.00 Build 0)  -->
<!DOCTYPE svg PUBLIC "-//W3C//DTD SVG 1.1//EN" "http://www.w3.org/Graphics/SVG/1.1/DTD/svg11.dtd">
<svg version="1.1" id="Layer_1" xmlns="http://www.w3.org/2000/svg" xmlns:xlink="http://www.w3.org/1999/xlink" x="0px" y="0px"
	 viewBox="0 0 100 100" enable-background="new 0 0 100 100" xml:space="preserve">
<path d="M97.2,45.9v8.2c0,2.3-0.7,4.2-2.1,5.8c-1.4,1.6-3.2,2.4-5.4,2.4H44.5l18.8,18.9c1.6,1.5,2.4,3.5,2.4,5.8s-0.8,4.2-2.4,5.8
	l-4.8,4.9C57,99.2,55,100,52.8,100c-2.2,0-4.2-0.8-5.8-2.4L5.1,55.8c-1.6-1.6-2.4-3.5-2.4-5.8c0-2.2,0.8-4.2,2.4-5.8L46.9,2.4
	C48.5,0.8,50.5,0,52.8,0c2.2,0,4.2,0.8,5.8,2.4l4.8,4.7c1.6,1.6,2.4,3.6,2.4,5.8c0,2.3-0.8,4.2-2.4,5.8L44.5,37.7h45.2
	c2.2,0,4,0.8,5.4,2.4C96.5,41.7,97.2,43.6,97.2,45.9z"/>
</svg>
