<?xml version="1.0" encoding="utf-8"?>
<!-- Generator: Adobe Illustrator 18.1.1, SVG Export Plug-In . SVG Version: 6.00 Build 0)  -->
<!DOCTYPE svg PUBLIC "-//W3C//DTD SVG 1.1//EN" "http://www.w3.org/Graphics/SVG/1.1/DTD/svg11.dtd">
<svg version="1.1" id="Layer_1" xmlns="http://www.w3.org/2000/svg" xmlns:xlink="http://www.w3.org/1999/xlink" x="0px" y="0px"
	 viewBox="0 0 100 100" enable-background="new 0 0 100 100" xml:space="preserve">
<path d="M81,17.1L48,50L81,82.9c0.8,0.8,1.2,1.7,1.2,2.8c0,1.1-0.4,2-1.2,2.8L70.7,98.8c-0.8,0.8-1.7,1.2-2.8,1.2s-2-0.4-2.8-1.2
	l-46-46c-0.8-0.8-1.2-1.7-1.2-2.8c0-1.1,0.4-2,1.2-2.8l46-46C65.9,0.4,66.8,0,67.9,0s2,0.4,2.8,1.2L81,11.5c0.8,0.8,1.2,1.7,1.2,2.8
	C82.1,15.3,81.7,16.3,81,17.1z"/>
</svg>
