<?xml version="1.0" encoding="utf-8"?>
<!-- Generator: Adobe Illustrator 18.1.1, SVG Export Plug-In . SVG Version: 6.00 Build 0)  -->
<!DOCTYPE svg PUBLIC "-//W3C//DTD SVG 1.1//EN" "http://www.w3.org/Graphics/SVG/1.1/DTD/svg11.dtd">
<svg version="1.1" id="Layer_1" xmlns="http://www.w3.org/2000/svg" xmlns:xlink="http://www.w3.org/1999/xlink" x="0px" y="0px"
	 viewBox="0 0 100 100" enable-background="new 0 0 100 100" xml:space="preserve">
<path d="M100,39.3c0,0.9-0.5,1.8-1.6,2.9L76.6,63.4l5.2,30c0,0.3,0.1,0.7,0.1,1.2c0,2-0.8,3-2.5,3c-0.8,0-1.6-0.2-2.4-0.7L50,82.8
	L23,97c-0.9,0.5-1.7,0.7-2.4,0.7c-0.8,0-1.5-0.3-1.9-0.9s-0.6-1.3-0.6-2.1c0-0.2,0-0.6,0.1-1.2l5.2-30L1.5,42.2
	c-1-1.1-1.5-2-1.5-2.9c0-1.5,1.1-2.4,3.4-2.8l30.2-4.4L47.1,4.8c0.8-1.6,1.7-2.5,2.9-2.5s2.2,0.8,2.9,2.5l13.5,27.3l30.2,4.4
	C98.9,36.9,100,37.8,100,39.3z M68.3,60.7l18.4-17.8l-25.4-3.7L50,16.2l-11.4,23l-25.4,3.7l18.4,17.8L27.3,86l22.7-12l22.7,12
	L68.3,60.7z"/>
</svg>
