<?xml version="1.0" encoding="utf-8"?>
<!-- Generator: Adobe Illustrator 18.1.1, SVG Export Plug-In . SVG Version: 6.00 Build 0)  -->
<!DOCTYPE svg PUBLIC "-//W3C//DTD SVG 1.1//EN" "http://www.w3.org/Graphics/SVG/1.1/DTD/svg11.dtd">
<svg version="1.1" id="Layer_1" xmlns="http://www.w3.org/2000/svg" xmlns:xlink="http://www.w3.org/1999/xlink" x="0px" y="0px"
	 viewBox="0 0 100 100" enable-background="new 0 0 100 100" xml:space="preserve">
<path d="M13.3,73.3C6,73.3,0,79.3,0,86.6C0,94,6,99.9,13.3,99.9c7.4,0,13.3-5.9,13.3-13.3C26.6,79.3,20.7,73.3,13.3,73.3z"/>
<path d="M0,34v19.2c12.5,0,24.2,4.9,33.1,13.7c8.8,8.8,13.7,20.6,13.7,33.1H66C66,63.6,36.4,34,0,34z"/>
<path d="M0,0v19.2c44.5,0,80.7,36.3,80.7,80.8H100C100,44.9,55.1,0,0,0z"/>
</svg>
