<?xml version="1.0" encoding="utf-8"?>
<!-- Generator: Adobe Illustrator 18.1.1, SVG Export Plug-In . SVG Version: 6.00 Build 0)  -->
<!DOCTYPE svg PUBLIC "-//W3C//DTD SVG 1.1//EN" "http://www.w3.org/Graphics/SVG/1.1/DTD/svg11.dtd">
<svg version="1.1" id="Layer_1" xmlns="http://www.w3.org/2000/svg" xmlns:xlink="http://www.w3.org/1999/xlink" x="0px" y="0px"
	 viewBox="0 0 100 100" enable-background="new 0 0 100 100" xml:space="preserve">
<path d="M100,42.9v14.5c0,0.5-0.2,1-0.5,1.5c-0.3,0.5-0.8,0.8-1.3,0.8l-12,1.8c-0.8,2.3-1.7,4.3-2.5,5.9c1.5,2.2,3.8,5.2,7,9
	c0.4,0.5,0.7,1.1,0.7,1.6c0,0.6-0.2,1.1-0.6,1.5c-1.2,1.6-3.3,4-6.4,7c-3.1,3.1-5.2,4.6-6.1,4.6c-0.5,0-1.1-0.2-1.7-0.6l-9-7
	c-1.9,1-3.9,1.8-5.9,2.5c-0.7,5.9-1.3,9.9-1.9,12.1c-0.3,1.2-1.1,1.8-2.3,1.8H42.8c-0.6,0-1.1-0.2-1.6-0.6c-0.5-0.4-0.7-0.8-0.7-1.4
	l-1.8-12c-2.1-0.7-4.1-1.5-5.9-2.4l-9.2,7c-0.4,0.4-1,0.6-1.6,0.6c-0.6,0-1.2-0.2-1.6-0.7c-5.5-4.9-9-8.6-10.7-10.9
	c-0.3-0.4-0.5-0.9-0.5-1.5c0-0.5,0.2-1,0.5-1.5c0.7-0.9,1.8-2.4,3.3-4.3c1.6-2,2.7-3.5,3.5-4.6c-1.2-2.2-2.1-4.3-2.7-6.4L1.9,59.4
	c-0.6-0.1-1-0.4-1.4-0.8c-0.3-0.5-0.5-1-0.5-1.5V42.6c0-0.5,0.2-1,0.5-1.5c0.3-0.5,0.8-0.8,1.2-0.8l12.1-1.8c0.6-2,1.5-4,2.5-6
	c-1.7-2.5-4.1-5.5-7-9c-0.4-0.5-0.7-1-0.7-1.6c0-0.4,0.2-0.9,0.6-1.5c1.1-1.6,3.3-3.9,6.4-7c3.1-3.1,5.2-4.7,6.2-4.7
	c0.6,0,1.1,0.2,1.7,0.7l9,7c1.9-1,3.9-1.8,5.9-2.5C39.2,8,39.9,4,40.4,1.8C40.7,0.6,41.5,0,42.8,0h14.5c0.6,0,1.1,0.2,1.6,0.6
	c0.5,0.4,0.7,0.8,0.7,1.4l1.8,12c2.1,0.7,4.1,1.5,5.9,2.4l9.2-7c0.4-0.4,0.9-0.6,1.6-0.6c0.6,0,1.1,0.2,1.6,0.7
	c5.6,5.2,9.2,8.9,10.7,11.1c0.3,0.3,0.5,0.8,0.5,1.4c0,0.5-0.2,1-0.5,1.5c-0.7,0.9-1.8,2.4-3.3,4.3c-1.6,2-2.7,3.5-3.5,4.6
	c1.1,2.2,2,4.3,2.7,6.4l11.9,1.8c0.6,0.1,1,0.4,1.4,0.8C99.8,41.8,100,42.3,100,42.9z M61.8,61.8c3.3-3.3,4.9-7.2,4.9-11.8
	s-1.6-8.5-4.9-11.8c-3.3-3.3-7.2-4.9-11.8-4.9c-4.6,0-8.5,1.6-11.8,4.9s-4.9,7.2-4.9,11.8s1.6,8.5,4.9,11.8
	c3.3,3.3,7.2,4.9,11.8,4.9C54.6,66.7,58.5,65,61.8,61.8z"/>
</svg>
