<?xml version="1.0" encoding="utf-8"?>
<!-- Generator: Adobe Illustrator 18.1.1, SVG Export Plug-In . SVG Version: 6.00 Build 0)  -->
<!DOCTYPE svg PUBLIC "-//W3C//DTD SVG 1.1//EN" "http://www.w3.org/Graphics/SVG/1.1/DTD/svg11.dtd">
<svg version="1.1" id="Layer_1" xmlns="http://www.w3.org/2000/svg" xmlns:xlink="http://www.w3.org/1999/xlink" x="0px" y="0px"
	 viewBox="0 0 100 100" enable-background="new 0 0 100 100" xml:space="preserve">
<path d="M100,92.3c0,2.1-0.8,3.9-2.3,5.4c-1.5,1.5-3.3,2.3-5.4,2.3c-2.2,0-4-0.8-5.4-2.3L66.3,77.2c-7.2,5-15.2,7.5-24,7.5
	c-5.7,0-11.2-1.1-16.4-3.3c-5.2-2.2-9.7-5.2-13.5-9c-3.8-3.8-6.8-8.3-9-13.5C1.1,53.5,0,48,0,42.3c0-5.7,1.1-11.2,3.3-16.4
	c2.2-5.2,5.2-9.7,9-13.5c3.8-3.8,8.3-6.8,13.5-9C31.1,1.1,36.6,0,42.3,0C48,0,53.5,1.1,58.7,3.3c5.2,2.2,9.7,5.2,13.5,9
	c3.8,3.8,6.8,8.3,9,13.5c2.2,5.2,3.3,10.7,3.3,16.4c0,8.8-2.5,16.8-7.5,24l20.6,20.6C99.3,88.4,100,90.2,100,92.3z M61.3,61.3
	c5.3-5.3,7.9-11.6,7.9-19c0-7.4-2.6-13.8-7.9-19s-11.6-7.9-19-7.9c-7.4,0-13.8,2.6-19,7.9c-5.3,5.3-7.9,11.6-7.9,19
	c0,7.4,2.6,13.8,7.9,19c5.3,5.3,11.6,7.9,19,7.9C49.7,69.2,56.1,66.6,61.3,61.3z"/>
</svg>
