<?xml version="1.0" encoding="utf-8"?>
<!-- Generator: Adobe Illustrator 18.1.1, SVG Export Plug-In . SVG Version: 6.00 Build 0)  -->
<!DOCTYPE svg PUBLIC "-//W3C//DTD SVG 1.1//EN" "http://www.w3.org/Graphics/SVG/1.1/DTD/svg11.dtd">
<svg version="1.1" id="Layer_1" xmlns="http://www.w3.org/2000/svg" xmlns:xlink="http://www.w3.org/1999/xlink" x="0px" y="0px"
	 viewBox="0 0 100 100" enable-background="new 0 0 100 100" xml:space="preserve">
<path d="M13.1,46.6c1.5,1.4,2.3,3.2,2.3,5.2s-0.8,3.8-2.3,5.2c-1.5,1.4-3.3,2.2-5.4,2.2s-3.9-0.7-5.4-2.2C0.8,55.6,0,53.9,0,51.9
	s0.8-3.8,2.3-5.2c1.5-1.4,3.3-2.2,5.4-2.2S11.6,45.2,13.1,46.6z M26.9,16.5c1.9,1.8,2.8,4,2.8,6.5c0,2.5-0.9,4.7-2.8,6.5
	c-1.9,1.8-4.1,2.7-6.8,2.7s-4.9-0.9-6.8-2.7c-1.9-1.8-2.8-4-2.8-6.5c0-2.5,0.9-4.7,2.8-6.5c1.9-1.8,4.1-2.7,6.8-2.7
	S25,14.7,26.9,16.5z M25.5,75.4c1.5,1.4,2.3,3.2,2.3,5.2s-0.8,3.8-2.3,5.2c-1.5,1.4-3.3,2.2-5.4,2.2c-2.1,0-3.9-0.7-5.4-2.2
	c-1.5-1.5-2.3-3.2-2.3-5.2c0-2,0.8-3.8,2.3-5.2c1.5-1.4,3.3-2.2,5.4-2.2C22.2,73.3,24,74,25.5,75.4z M58.2,3.2
	c2.2,2.2,3.4,4.8,3.4,7.9c0,3.1-1.1,5.7-3.4,7.9c-2.2,2.2-5,3.2-8.2,3.2c-3.2,0-5.9-1.1-8.2-3.2c-2.2-2.2-3.4-4.8-3.4-7.9
	c0-3.1,1.1-5.7,3.4-7.9C44.1,1.1,46.8,0,50,0C53.2,0,55.9,1.1,58.2,3.2z M55.4,87.4c1.5,1.4,2.3,3.2,2.3,5.2s-0.8,3.8-2.3,5.2
	c-1.5,1.4-3.3,2.2-5.4,2.2s-3.9-0.7-5.4-2.2c-1.5-1.4-2.3-3.2-2.3-5.2s0.8-3.8,2.3-5.2c1.5-1.4,3.3-2.2,5.4-2.2S53.9,85.9,55.4,87.4
	z M93.4,23c0,3.6-1.3,6.6-4,9.2c-2.6,2.5-5.8,3.8-9.5,3.8c-3.7,0-6.9-1.3-9.5-3.8c-2.6-2.5-3.9-5.6-3.9-9.2c0-3.5,1.3-6.6,3.9-9.1
	c2.6-2.5,5.8-3.8,9.5-3.8c3.7,0,6.9,1.3,9.5,3.8C92.1,16.4,93.4,19.5,93.4,23z M87.6,80.7c0,2-0.8,3.7-2.3,5.2
	c-1.5,1.5-3.3,2.2-5.4,2.2c-2.1,0-3.9-0.7-5.4-2.2c-1.5-1.4-2.3-3.2-2.3-5.2s0.8-3.8,2.3-5.2c1.5-1.4,3.3-2.2,5.4-2.2
	s3.9,0.7,5.4,2.2C86.9,76.9,87.6,78.6,87.6,80.7z M97.7,46.6c1.5,1.4,2.3,3.2,2.3,5.2s-0.8,3.8-2.3,5.2c-1.5,1.4-3.3,2.2-5.4,2.2
	c-2.1,0-3.9-0.7-5.4-2.2c-1.5-1.4-2.3-3.2-2.3-5.2s0.8-3.8,2.3-5.2c1.5-1.4,3.3-2.2,5.4-2.2C94.4,44.4,96.2,45.2,97.7,46.6z"/>
</svg>
