<?xml version="1.0" encoding="utf-8"?>
<!-- Generator: Adobe Illustrator 18.1.1, SVG Export Plug-In . SVG Version: 6.00 Build 0)  -->
<!DOCTYPE svg PUBLIC "-//W3C//DTD SVG 1.1//EN" "http://www.w3.org/Graphics/SVG/1.1/DTD/svg11.dtd">
<svg version="1.1" id="Layer_1" xmlns="http://www.w3.org/2000/svg" xmlns:xlink="http://www.w3.org/1999/xlink" x="0px" y="0px"
	 viewBox="0 0 100 100" enable-background="new 0 0 100 100" xml:space="preserve">
<path d="M100,19.6c0,2.9-0.9,5.7-2.7,8.4s-4.1,5-6.8,6.9c-14,9.7-22.7,15.8-26.1,18.1c-0.4,0.3-1.2,0.8-2.4,1.7
	c-1.2,0.9-2.2,1.6-3,2.1c-0.8,0.5-1.8,1.1-2.9,1.8c-1.1,0.7-2.2,1.2-3.2,1.5c-1,0.3-1.9,0.5-2.8,0.5H50h-0.1c-0.9,0-1.8-0.2-2.8-0.5
	c-1-0.3-2.1-0.8-3.2-1.5c-1.1-0.7-2.1-1.3-2.9-1.8c-0.8-0.5-1.8-1.2-3-2.1c-1.2-0.9-2-1.4-2.4-1.7c-3.4-2.4-8.3-5.8-14.6-10.2
	c-6.4-4.4-10.2-7.1-11.4-8c-2.3-1.6-4.5-3.7-6.5-6.4C1,25.8,0,23.2,0,20.9c0-2.9,0.8-5.3,2.3-7.3c1.5-1.9,3.7-2.9,6.6-2.9h82.1
	c2.4,0,4.5,0.9,6.3,2.6C99.1,15.1,100,17.2,100,19.6z M100,36v44.3c0,2.5-0.9,4.6-2.6,6.3c-1.7,1.7-3.9,2.6-6.3,2.6H8.9
	c-2.5,0-4.6-0.9-6.3-2.6C0.9,84.9,0,82.8,0,80.4V36c1.6,1.8,3.5,3.4,5.6,4.9c13.5,9.2,22.7,15.6,27.7,19.3c2.1,1.6,3.8,2.8,5.2,3.7
	c1.3,0.9,3.1,1.8,5.3,2.7c2.2,0.9,4.2,1.4,6.1,1.4H50h0.1c1.9,0,3.9-0.5,6.1-1.4c2.2-0.9,4-1.8,5.3-2.7c1.3-0.9,3-2.1,5.2-3.7
	c6.3-4.6,15.6-11,27.8-19.3C96.5,39.5,98.4,37.8,100,36z"/>
</svg>
