<?xml version="1.0" encoding="utf-8"?>
<!-- Generator: Adobe Illustrator 18.1.1, SVG Export Plug-In . SVG Version: 6.00 Build 0)  -->
<!DOCTYPE svg PUBLIC "-//W3C//DTD SVG 1.1//EN" "http://www.w3.org/Graphics/SVG/1.1/DTD/svg11.dtd">
<svg version="1.1" id="Layer_1" xmlns="http://www.w3.org/2000/svg" xmlns:xlink="http://www.w3.org/1999/xlink" x="0px" y="0px"
	 viewBox="0 0 100 100" enable-background="new 0 0 100 100" xml:space="preserve">
<path d="M100,52.8c0,2.2-0.8,4.1-2.4,5.8l-4.8,4.8c-1.6,1.6-3.6,2.4-5.8,2.4c-2.3,0-4.2-0.8-5.8-2.4L62.3,44.5v45.2
	c0,2.2-0.8,4-2.4,5.4c-1.6,1.4-3.5,2.1-5.8,2.1h-8.2c-2.3,0-4.2-0.7-5.8-2.1c-1.6-1.4-2.4-3.2-2.4-5.4V44.5L18.8,63.4
	c-1.5,1.6-3.5,2.4-5.8,2.4c-2.3,0-4.2-0.8-5.8-2.4l-4.8-4.8C0.8,56.9,0,55,0,52.8c0-2.3,0.8-4.2,2.4-5.8L44.2,5.1
	c1.5-1.6,3.4-2.4,5.8-2.4c2.3,0,4.3,0.8,5.8,2.4l41.8,41.8C99.2,48.6,100,50.5,100,52.8z"/>
</svg>
