<?xml version="1.0" encoding="utf-8"?>
<!-- Generator: Adobe Illustrator 18.1.1, SVG Export Plug-In . SVG Version: 6.00 Build 0)  -->
<!DOCTYPE svg PUBLIC "-//W3C//DTD SVG 1.1//EN" "http://www.w3.org/Graphics/SVG/1.1/DTD/svg11.dtd">
<svg version="1.1" id="Layer_1" xmlns="http://www.w3.org/2000/svg" xmlns:xlink="http://www.w3.org/1999/xlink" x="0px" y="0px"
	 viewBox="0 0 100 100" enable-background="new 0 0 100 100" xml:space="preserve">
<path d="M99.6,51.8l-3.8,4.6c-0.3,0.4-0.8,0.6-1.3,0.7h-0.2c-0.5,0-1-0.1-1.3-0.4L50,20.8L7.1,56.6c-0.5,0.3-1,0.5-1.5,0.4
	c-0.5-0.1-1-0.3-1.3-0.7l-3.8-4.6C0.1,51.4,0,50.9,0,50.3c0-0.6,0.3-1,0.7-1.3l44.6-37.2c1.3-1.1,2.9-1.6,4.7-1.6
	c1.8,0,3.4,0.5,4.7,1.6l15.1,12.7V12.4c0-0.6,0.2-1.1,0.6-1.4c0.4-0.4,0.8-0.6,1.4-0.6h11.9c0.6,0,1.1,0.2,1.4,0.6
	c0.4,0.4,0.6,0.8,0.6,1.4v25.3L99.3,49c0.4,0.3,0.6,0.8,0.7,1.3C100,50.9,99.9,51.4,99.6,51.8z M85.7,56v29.8c0,1.1-0.4,2-1.2,2.8
	c-0.8,0.8-1.7,1.2-2.8,1.2H57.9V66H42.1v23.8H18.2c-1.1,0-2-0.4-2.8-1.2c-0.8-0.8-1.2-1.7-1.2-2.8V56l0-0.2l0-0.2L50,26.3l35.7,29.4
	C85.7,55.8,85.7,55.9,85.7,56z"/>
</svg>
