<?xml version="1.0" encoding="utf-8"?>
<!-- Generator: Adobe Illustrator 18.1.1, SVG Export Plug-In . SVG Version: 6.00 Build 0)  -->
<!DOCTYPE svg PUBLIC "-//W3C//DTD SVG 1.1//EN" "http://www.w3.org/Graphics/SVG/1.1/DTD/svg11.dtd">
<svg version="1.1" id="Layer_1" xmlns="http://www.w3.org/2000/svg" xmlns:xlink="http://www.w3.org/1999/xlink" x="0px" y="0px"
	 viewBox="0 0 100 100" enable-background="new 0 0 100 100" xml:space="preserve">
<path d="M100,26.6c0,1.7-0.6,3.2-1.8,4.4L51.5,77.7l-8.8,8.8c-1.2,1.2-2.7,1.8-4.4,1.8s-3.2-0.6-4.4-1.8l-8.8-8.8L1.8,54.4
	C0.6,53.2,0,51.7,0,50c0-1.7,0.6-3.2,1.8-4.4l8.8-8.8c1.2-1.2,2.7-1.8,4.4-1.8s3.2,0.6,4.4,1.8l19,19l42.3-42.4
	c1.2-1.2,2.7-1.8,4.4-1.8c1.7,0,3.2,0.6,4.4,1.8l8.8,8.8C99.4,23.5,100,24.9,100,26.6z"/>
</svg>
