<?xml version="1.0" encoding="utf-8"?>
<!-- Generator: Adobe Illustrator 18.1.1, SVG Export Plug-In . SVG Version: 6.00 Build 0)  -->
<!DOCTYPE svg PUBLIC "-//W3C//DTD SVG 1.1//EN" "http://www.w3.org/Graphics/SVG/1.1/DTD/svg11.dtd">
<svg version="1.1" id="Layer_1" xmlns="http://www.w3.org/2000/svg" xmlns:xlink="http://www.w3.org/1999/xlink" x="0px" y="0px"
	 viewBox="0 0 100 100" enable-background="new 0 0 100 100" xml:space="preserve">
<path d="M100,19.2V50c0,1-0.3,1.8-1,2.6c-0.7,0.7-1.5,1.2-2.4,1.3l-62.7,7.3c0.5,2.4,0.8,3.8,0.8,4.2c0,0.6-0.5,1.9-1.4,3.8h55.3
	c1,0,1.9,0.4,2.7,1.1c0.8,0.8,1.1,1.7,1.1,2.7c0,1-0.4,1.9-1.1,2.7c-0.8,0.8-1.7,1.1-2.7,1.1H26.9c-1,0-1.9-0.4-2.7-1.1
	c-0.8-0.8-1.1-1.7-1.1-2.7c0-0.4,0.2-1.1,0.5-1.9c0.3-0.8,0.6-1.5,1-2.2c0.3-0.6,0.8-1.4,1.3-2.4c0.5-1,0.9-1.6,0.9-1.8L16.1,15.4
	H3.8c-1,0-1.9-0.4-2.7-1.1C0.4,13.5,0,12.6,0,11.5c0-1,0.4-1.9,1.1-2.7c0.8-0.8,1.7-1.1,2.7-1.1h15.4c0.6,0,1.2,0.1,1.7,0.4
	c0.5,0.3,0.9,0.6,1.2,0.9c0.3,0.4,0.5,0.9,0.8,1.5c0.2,0.6,0.4,1.1,0.5,1.6c0.1,0.4,0.2,1,0.3,1.8c0.1,0.8,0.2,1.3,0.3,1.6h72.2
	c1,0,1.9,0.4,2.7,1.1C99.6,17.3,100,18.2,100,19.2z M36.2,79.2c1.5,1.5,2.3,3.3,2.3,5.4c0,2.1-0.8,3.9-2.3,5.4
	c-1.5,1.5-3.3,2.3-5.4,2.3c-2.1,0-3.9-0.8-5.4-2.3c-1.5-1.5-2.3-3.3-2.3-5.4c0-2.1,0.8-3.9,2.3-5.4c1.5-1.5,3.3-2.3,5.4-2.3
	C32.9,76.9,34.7,77.7,36.2,79.2z M90,79.2c1.5,1.5,2.3,3.3,2.3,5.4c0,2.1-0.8,3.9-2.3,5.4c-1.5,1.5-3.3,2.3-5.4,2.3
	c-2.1,0-3.9-0.8-5.4-2.3c-1.5-1.5-2.3-3.3-2.3-5.4c0-2.1,0.8-3.9,2.3-5.4c1.5-1.5,3.3-2.3,5.4-2.3C86.7,76.9,88.5,77.7,90,79.2z"/>
</svg>
