<?xml version="1.0" encoding="utf-8"?>
<!-- Generator: Adobe Illustrator 18.1.1, SVG Export Plug-In . SVG Version: 6.00 Build 0)  -->
<!DOCTYPE svg PUBLIC "-//W3C//DTD SVG 1.1//EN" "http://www.w3.org/Graphics/SVG/1.1/DTD/svg11.dtd">
<svg version="1.1" id="Layer_1" xmlns="http://www.w3.org/2000/svg" xmlns:xlink="http://www.w3.org/1999/xlink" x="0px" y="0px"
	 viewBox="0 0 100 100" enable-background="new 0 0 100 100" xml:space="preserve">
<path d="M46.2,19.2v42.3c0,4.2-0.8,8.1-2.4,11.9c-1.6,3.8-3.8,7.1-6.6,9.8c-2.8,2.8-6,5-9.8,6.6s-7.8,2.4-11.9,2.4h-3.8
	c-1,0-1.9-0.4-2.7-1.1c-0.8-0.8-1.1-1.7-1.1-2.7v-7.7c0-1,0.4-1.9,1.1-2.7c0.8-0.8,1.7-1.1,2.7-1.1h3.8c4.2,0,7.9-1.5,10.9-4.5
	c3-3,4.5-6.6,4.5-10.9v-1.9c0-1.6-0.6-3-1.7-4.1c-1.1-1.1-2.5-1.7-4.1-1.7H11.5c-3.2,0-5.9-1.1-8.2-3.4c-2.2-2.2-3.4-5-3.4-8.2V19.2
	c0-3.2,1.1-5.9,3.4-8.2c2.2-2.2,5-3.4,8.2-3.4h23.1c3.2,0,5.9,1.1,8.2,3.4C45,13.3,46.2,16,46.2,19.2z M100,19.2v42.3
	c0,4.2-0.8,8.1-2.4,11.9c-1.6,3.8-3.8,7.1-6.6,9.8c-2.8,2.8-6,5-9.8,6.6s-7.8,2.4-11.9,2.4h-3.8c-1,0-1.9-0.4-2.7-1.1
	c-0.8-0.8-1.1-1.7-1.1-2.7v-7.7c0-1,0.4-1.9,1.1-2.7s1.7-1.1,2.7-1.1h3.8c4.2,0,7.9-1.5,10.9-4.5c3-3,4.5-6.6,4.5-10.9v-1.9
	c0-1.6-0.6-3-1.7-4.1c-1.1-1.1-2.5-1.7-4.1-1.7H65.4c-3.2,0-5.9-1.1-8.2-3.4c-2.2-2.2-3.4-5-3.4-8.2V19.2c0-3.2,1.1-5.9,3.4-8.2
	c2.2-2.2,5-3.4,8.2-3.4h23.1c3.2,0,5.9,1.1,8.2,3.4C98.9,13.3,100,16,100,19.2z"/>
</svg>
