<?xml version="1.0" encoding="utf-8"?>
<!-- Generator: Adobe Illustrator 18.1.1, SVG Export Plug-In . SVG Version: 6.00 Build 0)  -->
<!DOCTYPE svg PUBLIC "-//W3C//DTD SVG 1.1//EN" "http://www.w3.org/Graphics/SVG/1.1/DTD/svg11.dtd">
<svg version="1.1" id="Layer_1" xmlns="http://www.w3.org/2000/svg" xmlns:xlink="http://www.w3.org/1999/xlink" x="0px" y="0px"
	 viewBox="0 0 100 100" enable-background="new 0 0 100 100" xml:space="preserve">
<path d="M100,79c0,1.3-0.2,2.9-0.7,5c-0.5,2.1-1,3.7-1.5,4.9c-1,2.4-3.9,4.9-8.7,7.5c-4.5,2.4-8.9,3.6-13.2,3.6
	c-1.3,0-2.5-0.1-3.7-0.2c-1.2-0.2-2.6-0.5-4.1-0.9c-1.5-0.4-2.6-0.8-3.4-1c-0.7-0.3-2-0.7-3.9-1.5c-1.9-0.7-3.1-1.1-3.5-1.3
	c-4.6-1.7-8.8-3.6-12.4-5.9c-6.1-3.7-12.3-8.8-18.8-15.3c-6.5-6.5-11.6-12.7-15.3-18.8c-2.3-3.6-4.2-7.8-5.9-12.4
	c-0.1-0.4-0.6-1.6-1.3-3.5c-0.7-1.9-1.2-3.2-1.5-3.9c-0.3-0.7-0.6-1.9-1-3.4c-0.4-1.5-0.7-2.9-0.9-4.1C0.1,26.6,0,25.4,0,24.1
	c0-4.4,1.2-8.8,3.6-13.2c2.7-4.8,5.2-7.7,7.5-8.7c1.2-0.5,2.8-1,4.9-1.5C18.1,0.2,19.7,0,21,0c0.7,0,1.2,0.1,1.5,0.2
	c0.9,0.3,2.1,2.1,3.8,5.4c0.5,0.9,1.2,2.2,2.1,3.8c0.9,1.7,1.7,3.2,2.5,4.5c0.8,1.3,1.5,2.6,2.2,3.8c0.1,0.2,0.6,0.8,1.2,1.8
	c0.7,1,1.2,1.8,1.5,2.5s0.5,1.4,0.5,2c0,0.9-0.7,2.1-2,3.6c-1.3,1.4-2.8,2.7-4.4,3.9c-1.6,1.2-3.1,2.4-4.4,3.8c-1.3,1.3-2,2.4-2,3.3
	c0,0.4,0.1,1,0.4,1.6c0.2,0.6,0.4,1.1,0.6,1.5c0.2,0.3,0.5,0.9,1,1.7c0.5,0.8,0.8,1.3,0.8,1.3c3.6,6.5,7.7,12,12.4,16.7
	c4.6,4.6,10.2,8.8,16.7,12.4c0.1,0,0.5,0.3,1.3,0.8c0.8,0.5,1.4,0.8,1.7,1c0.3,0.2,0.8,0.4,1.5,0.6c0.6,0.2,1.2,0.4,1.6,0.4
	c0.9,0,1.9-0.7,3.3-2c1.3-1.3,2.6-2.8,3.8-4.4c1.2-1.6,2.5-3.1,3.9-4.4c1.4-1.3,2.6-2,3.6-2c0.7,0,1.3,0.2,2,0.5
	c0.7,0.3,1.5,0.8,2.5,1.5c1,0.7,1.6,1.1,1.8,1.2c1.2,0.7,2.5,1.4,3.8,2.2c1.3,0.8,2.9,1.6,4.5,2.5c1.7,0.9,2.9,1.6,3.8,2.1
	c3.3,1.7,5.1,2.9,5.4,3.8C99.9,77.8,100,78.3,100,79z"/>
</svg>
