<?xml version="1.0" encoding="utf-8"?>
<!-- Generator: Adobe Illustrator 18.1.1, SVG Export Plug-In . SVG Version: 6.00 Build 0)  -->
<!DOCTYPE svg PUBLIC "-//W3C//DTD SVG 1.1//EN" "http://www.w3.org/Graphics/SVG/1.1/DTD/svg11.dtd">
<svg version="1.1" id="Layer_1" xmlns="http://www.w3.org/2000/svg" xmlns:xlink="http://www.w3.org/1999/xlink" x="0px" y="0px"
	 viewBox="0 0 100 100" enable-background="new 0 0 100 100" xml:space="preserve">
<path d="M95.8,83.1c0,5.2-1.6,9.3-4.8,12.3c-3.2,3-7.4,4.5-12.6,4.5H21.5c-5.3,0-9.5-1.5-12.6-4.5c-3.2-3-4.8-7.1-4.8-12.3
	c0-2.3,0.1-4.5,0.2-6.7c0.2-2.2,0.5-4.6,0.9-7.1c0.5-2.5,1-4.9,1.7-7.1c0.7-2.2,1.6-4.3,2.8-6.3c1.2-2.1,2.5-3.8,4-5.3
	c1.5-1.5,3.4-2.6,5.6-3.5c2.2-0.9,4.6-1.3,7.3-1.3c0.4,0,1.3,0.5,2.7,1.4c1.4,0.9,3,2,4.9,3.1c1.8,1.2,4.1,2.2,7,3.1
	c2.9,0.9,5.8,1.4,8.7,1.4c2.9,0,5.8-0.5,8.7-1.4c2.9-0.9,5.2-2,7-3.1c1.8-1.2,3.4-2.2,4.9-3.1c1.4-0.9,2.3-1.4,2.7-1.4
	c2.6,0,5.1,0.4,7.3,1.3c2.2,0.9,4,2,5.6,3.5c1.5,1.5,2.9,3.2,4,5.3c1.2,2.1,2.1,4.2,2.8,6.3c0.7,2.2,1.3,4.5,1.7,7.1
	c0.5,2.5,0.8,4.9,0.9,7.1C95.8,78.6,95.8,80.8,95.8,83.1z M67.7,7.3C72.6,12.2,75,18.1,75,25s-2.4,12.8-7.3,17.7S56.9,50,50,50
	c-6.9,0-12.8-2.4-17.7-7.3C27.4,37.8,25,31.9,25,25s2.4-12.8,7.3-17.7C37.2,2.4,43.1,0,50,0C56.9,0,62.8,2.4,67.7,7.3z"/>
</svg>
