<?xml version="1.0" encoding="utf-8"?>
<!-- Generator: Adobe Illustrator 18.1.1, SVG Export Plug-In . SVG Version: 6.00 Build 0)  -->
<!DOCTYPE svg PUBLIC "-//W3C//DTD SVG 1.1//EN" "http://www.w3.org/Graphics/SVG/1.1/DTD/svg11.dtd">
<svg version="1.1" id="Layer_1" xmlns="http://www.w3.org/2000/svg" xmlns:xlink="http://www.w3.org/1999/xlink" x="0px" y="0px"
	 viewBox="0 0 100 100" enable-background="new 0 0 100 100" xml:space="preserve">
<path d="M100,47.6c0,2.3-0.8,4.2-2.4,5.8L55.8,95.2c-1.7,1.6-3.6,2.4-5.8,2.4c-2.3,0-4.2-0.8-5.8-2.4L2.4,53.4
	C0.8,51.8,0,49.9,0,47.6c0-2.3,0.8-4.2,2.4-5.8l4.8-4.8c1.7-1.6,3.6-2.4,5.8-2.4c2.3,0,4.2,0.8,5.8,2.4l18.9,18.9V10.6
	c0-2.2,0.8-4.1,2.4-5.8c1.6-1.6,3.6-2.4,5.8-2.4h8.2c2.2,0,4.1,0.8,5.8,2.4c1.6,1.6,2.4,3.6,2.4,5.8v45.2l18.9-18.9
	c1.6-1.6,3.5-2.4,5.8-2.4c2.2,0,4.2,0.8,5.8,2.4l4.8,4.8C99.2,43.4,100,45.4,100,47.6z"/>
</svg>
