<?xml version="1.0" encoding="utf-8"?>
<!-- Generator: Adobe Illustrator 18.1.1, SVG Export Plug-In . SVG Version: 6.00 Build 0)  -->
<!DOCTYPE svg PUBLIC "-//W3C//DTD SVG 1.1//EN" "http://www.w3.org/Graphics/SVG/1.1/DTD/svg11.dtd">
<svg version="1.1" id="Layer_1" xmlns="http://www.w3.org/2000/svg" xmlns:xlink="http://www.w3.org/1999/xlink" x="0px" y="0px"
	 viewBox="0 0 100 100" enable-background="new 0 0 100 100" xml:space="preserve">
<path d="M70.6,42.3c0,0.7-0.3,1.3-0.8,1.8c-0.5,0.5-1.1,0.8-1.8,0.8H32c-0.7,0-1.3-0.3-1.8-0.8c-0.5-0.5-0.8-1.1-0.8-1.8
	c0-0.7,0.3-1.3,0.8-1.8l18-18c0.5-0.5,1.1-0.8,1.8-0.8s1.3,0.3,1.8,0.8l18,18C70.3,41,70.6,41.6,70.6,42.3z M69.8,55.9
	c0.5,0.5,0.8,1.1,0.8,1.8c0,0.7-0.3,1.3-0.8,1.8l-18,18c-0.5,0.5-1.1,0.8-1.8,0.8s-1.3-0.3-1.8-0.8l-18-18c-0.5-0.5-0.8-1.1-0.8-1.8
	c0-0.7,0.3-1.3,0.8-1.8c0.5-0.5,1.1-0.8,1.8-0.8h36C68.7,55.1,69.3,55.4,69.8,55.9z"/>
</svg>
