<?xml version="1.0" encoding="utf-8"?>
<!-- Generator: Adobe Illustrator 18.1.1, SVG Export Plug-In . SVG Version: 6.00 Build 0)  -->
<!DOCTYPE svg PUBLIC "-//W3C//DTD SVG 1.1//EN" "http://www.w3.org/Graphics/SVG/1.1/DTD/svg11.dtd">
<svg version="1.1" id="Layer_1" xmlns="http://www.w3.org/2000/svg" xmlns:xlink="http://www.w3.org/1999/xlink" x="0px" y="0px"
	 viewBox="0 0 100 100" enable-background="new 0 0 100 100" xml:space="preserve">
<path d="M50,94.9c-1,0-1.8-0.3-2.5-1L12.7,60.3c-0.4-0.3-0.9-0.8-1.5-1.5s-1.7-1.9-3.1-3.7c-1.4-1.8-2.7-3.6-3.8-5.4
	c-1.1-1.9-2.1-4.1-3-6.8C0.4,40.3,0,37.8,0,35.3c0-8.2,2.4-14.6,7.1-19.2c4.7-4.6,11.3-6.9,19.6-6.9c2.3,0,4.7,0.4,7.1,1.2
	c2.4,0.8,4.6,1.9,6.7,3.2c2.1,1.4,3.8,2.6,5.3,3.8c1.5,1.2,2.9,2.5,4.2,3.8c1.3-1.3,2.8-2.6,4.2-3.8c1.5-1.2,3.3-2.5,5.3-3.8
	c2.1-1.4,4.3-2.4,6.7-3.2c2.4-0.8,4.8-1.2,7.1-1.2c8.3,0,14.9,2.3,19.6,6.9c4.7,4.6,7.1,11,7.1,19.2c0,8.2-4.3,16.6-12.8,25.1
	L52.5,93.9C51.8,94.5,51,94.9,50,94.9z"/>
</svg>
