<?xml version="1.0" encoding="utf-8"?>
<!-- Generator: Adobe Illustrator 18.1.1, SVG Export Plug-In . SVG Version: 6.00 Build 0)  -->
<!DOCTYPE svg PUBLIC "-//W3C//DTD SVG 1.1//EN" "http://www.w3.org/Graphics/SVG/1.1/DTD/svg11.dtd">
<svg version="1.1" id="Layer_1" xmlns="http://www.w3.org/2000/svg" xmlns:xlink="http://www.w3.org/1999/xlink" x="0px" y="0px"
	 viewBox="0 0 100 100" enable-background="new 0 0 100 100" xml:space="preserve">
<path d="M46.2,57.7v23.1c0,3.2-1.1,5.9-3.4,8.2c-2.2,2.2-5,3.4-8.2,3.4H11.5c-3.2,0-5.9-1.1-8.2-3.4C1.1,86.7,0,84,0,80.8V38.5
	c0-4.2,0.8-8.1,2.4-11.9c1.6-3.8,3.8-7.1,6.6-9.8c2.8-2.8,6-5,9.8-6.6s7.8-2.4,11.9-2.4h3.8c1,0,1.9,0.4,2.7,1.1
	c0.8,0.8,1.1,1.7,1.1,2.7v7.7c0,1-0.4,1.9-1.1,2.7c-0.8,0.8-1.7,1.1-2.7,1.1h-3.8c-4.2,0-7.9,1.5-10.9,4.5c-3,3-4.5,6.6-4.5,10.9
	v1.9c0,1.6,0.6,3,1.7,4.1c1.1,1.1,2.5,1.7,4.1,1.7h13.5c3.2,0,5.9,1.1,8.2,3.4C45,51.8,46.2,54.5,46.2,57.7z M100,57.7v23.1
	c0,3.2-1.1,5.9-3.4,8.2c-2.2,2.2-5,3.4-8.2,3.4H65.4c-3.2,0-5.9-1.1-8.2-3.4c-2.2-2.2-3.4-5-3.4-8.2V38.5c0-4.2,0.8-8.1,2.4-11.9
	c1.6-3.8,3.8-7.1,6.6-9.8c2.8-2.8,6-5,9.8-6.6s7.8-2.4,11.9-2.4h3.8c1,0,1.9,0.4,2.7,1.1c0.8,0.8,1.1,1.7,1.1,2.7v7.7
	c0,1-0.4,1.9-1.1,2.7c-0.8,0.8-1.7,1.1-2.7,1.1h-3.8c-4.2,0-7.9,1.5-10.9,4.5c-3,3-4.5,6.6-4.5,10.9v1.9c0,1.6,0.6,3,1.7,4.1
	c1.1,1.1,2.5,1.7,4.1,1.7h13.5c3.2,0,5.9,1.1,8.2,3.4C98.9,51.8,100,54.5,100,57.7z"/>
</svg>
