<?xml version="1.0" encoding="utf-8"?>
<!-- Generator: Adobe Illustrator 18.1.1, SVG Export Plug-In . SVG Version: 6.00 Build 0)  -->
<!DOCTYPE svg PUBLIC "-//W3C//DTD SVG 1.1//EN" "http://www.w3.org/Graphics/SVG/1.1/DTD/svg11.dtd">
<svg version="1.1" id="Layer_1" xmlns="http://www.w3.org/2000/svg" xmlns:xlink="http://www.w3.org/1999/xlink" x="0px" y="0px"
	 viewBox="0 0 100 64" enable-background="new 0 0 100 64" xml:space="preserve">
<g>
	<path d="M96.7,0H3.3C1.5,0,0,1.5,0,3.3v55.8c0,1.8,1.5,3.3,3.3,3.3h93.3c1.8,0,3.3-1.5,3.3-3.3V3.3C100,1.5,98.5,0,96.7,0z
		 M82.4,41.3c-1.8,3.1-4.2,5.5-7.3,7.3c-3.1,1.8-6.4,2.7-10.1,2.7c-4.4,0-8.5-1.4-12.1-4.1c2.9-2.7,5-6,6.1-9.7h-1.8
		c-1.1,3.4-3,6.3-5.6,8.6c-2.6-2.3-4.5-5.2-5.6-8.6h-1.8c1.1,3.8,3.1,7,6.1,9.7c-3.6,2.7-7.6,4.1-12.1,4.1c-3.6,0-7-0.9-10.1-2.7
		c-3.1-1.8-5.5-4.2-7.3-7.3c-1.8-3.1-2.7-6.4-2.7-10.1c0-3.6,0.9-7,2.7-10.1c1.8-3.1,4.2-5.5,7.3-7.3c3.1-1.8,6.4-2.7,10.1-2.7
		c4.4,0,8.5,1.4,12.1,4.1c-3.1,2.9-5.2,6.3-6.3,10.5h1.8c1.1-3.7,3-6.8,5.8-9.3c2.8,2.5,4.7,5.6,5.8,9.3h1.8
		c-1.1-4.1-3.2-7.6-6.3-10.5c3.6-2.7,7.6-4.1,12.1-4.1c3.6,0,7,0.9,10.1,2.7c3.1,1.8,5.5,4.2,7.3,7.3c1.8,3.1,2.7,6.4,2.7,10.1
		C85.1,34.8,84.2,38.2,82.4,41.3z"/>
	<path fill="#FFFFFF" d="M50.6,30.3l-0.2-0.2c-0.1-0.1-0.2-0.1-0.3-0.2c-0.1,0-0.3-0.1-0.4-0.1c-0.7,0-1.1,0.5-1.3,1.4h2.3v-0.1
		c0-0.1,0-0.2,0-0.2c0-0.1,0-0.1,0-0.3C50.7,30.5,50.7,30.4,50.6,30.3z"/>
	<path d="M37,30.7c0,1,0.5,1.7,1.6,2.2c0.4,0.2,0.7,0.4,0.8,0.5c0.1,0.1,0.2,0.3,0.2,0.4c0,0.5-0.4,0.7-1.2,0.7
		c-0.5,0-1.2-0.1-1.9-0.3c-0.2,1.2-0.3,1.8-0.3,1.8c0.6,0.1,1.3,0.2,2.1,0.2c2.1,0,3.2-0.8,3.2-2.6c0-1-0.5-1.7-1.5-2.2
		c-0.4-0.2-0.7-0.3-0.8-0.4c-0.1-0.1-0.2-0.2-0.2-0.4c0-0.4,0.3-0.6,1-0.6c0.5,0,1,0,1.5,0.1l0.3-1.8c-0.5-0.1-1.1-0.1-1.8-0.1
		C38,28.1,37,29,37,30.7z"/>
	<path d="M45.4,27h-2c-0.5,3.1-0.8,4.9-0.9,5.4c-0.2,1.1-0.3,1.8-0.3,2.1c0,1.2,0.6,1.7,1.7,1.7c0.5,0,1-0.1,1.5-0.3l0.3-1.7
		c-0.2,0-0.4,0.1-0.6,0.1c-0.5,0-0.7-0.2-0.7-0.6c0-0.1,0-0.3,0.1-0.7c0.1-0.4,0.1-0.8,0.3-1.4c0.1-0.6,0.2-1.1,0.2-1.5h1.1l0.3-1.9
		h-1L45.4,27z"/>
	<path d="M33.4,28.1c-0.7,0-1.5,0.1-2.5,0.4c-0.2,1.1-0.3,1.7-0.3,1.8c0.7-0.2,1.5-0.4,2.2-0.4c0.9,0,1.3,0.2,1.3,0.7l0,0.1l0,0.2
		l0,0.2c-0.2,0-0.5,0-0.8,0c-1.2,0-2.1,0.3-2.7,0.8c-0.6,0.5-1,1.3-1,2.2c0,0.6,0.2,1.2,0.5,1.5c0.4,0.4,0.8,0.6,1.4,0.6
		c0.9,0,1.6-0.3,2.1-1l0,0.8h1.7c0-0.3,0.2-1.7,0.6-4.2c0.1-0.9,0.1-1.4,0.1-1.5C36.2,28.8,35.3,28.1,33.4,28.1z M33.4,34
		c-0.3,0.4-0.6,0.6-1,0.6c-0.5,0-0.7-0.3-0.7-0.8c0-0.8,0.6-1.2,1.7-1.2h0.5C33.9,33.2,33.7,33.6,33.4,34z"/>
	<g>
		<path fill="none" d="M50.7,31.1c0-0.1,0-0.2,0-0.2c0-0.1,0-0.1,0-0.3c0-0.1,0-0.2-0.1-0.3l-0.2-0.2c-0.1-0.1-0.2-0.1-0.3-0.2
			c-0.1,0-0.3-0.1-0.4-0.1c-0.7,0-1.1,0.5-1.3,1.4h2.3V31.1z"/>
	</g>
	<polygon points="26.9,26.4 24.8,32.4 24.8,26.4 21.8,26.4 20.1,36.1 22.1,36.1 23.3,28.7 23.5,36.1 24.9,36.1 27.6,28.7 26.4,36.1 
		28.4,36.1 30.1,26.4 	"/>
	<path d="M56.7,28.4c-0.3,0.2-0.6,0.6-0.9,1.1l0.1-1.2H54c-0.2,1.7-0.5,4.1-1.1,7.3l-0.1,0.5h2.1c0.4-2.5,0.7-4.1,0.9-4.7
		c0.2-0.6,0.6-0.9,1.1-0.9c0.2-1,0.5-1.7,0.8-2.3C57.4,28.1,57,28.1,56.7,28.4z"/>
	<path d="M74.8,28.4c-0.3,0.2-0.6,0.6-1,1.1c0.1-0.5,0.1-0.9,0.1-1.2h-1.9c-0.2,2.3-0.6,4.8-1.1,7.3l-0.1,0.5H73
		c0.4-2.6,0.7-4.1,0.9-4.8c0.2-0.6,0.6-0.9,1.2-0.8c0.2-0.9,0.4-1.7,0.8-2.3C75.4,28.1,75.1,28.1,74.8,28.4z"/>
	<path d="M80.6,29.2c-0.5-0.7-1.2-1.1-2-1.1c-0.9,0-1.7,0.5-2.4,1.4c-0.7,1-1,2.1-1,3.4c0,1,0.2,1.8,0.7,2.4
		c0.5,0.6,1.1,0.9,1.8,0.9c0.7,0,1.4-0.3,1.9-0.8l-0.1,0.7h2l1.6-9.7H81L80.6,29.2z M79.6,33.5c-0.3,0.5-0.7,0.7-1.2,0.7
		c-0.7,0-1-0.5-1-1.5c0-0.8,0.1-1.4,0.4-1.9c0.3-0.5,0.7-0.7,1.1-0.7c0.7,0,1.1,0.5,1.1,1.5C80.1,32.4,80,33,79.6,33.5z"/>
	<g>
		<path d="M52.4,32.8c0.2-0.7,0.3-1.4,0.3-1.9c0-0.9-0.3-1.5-0.8-2.1c-0.5-0.5-1.2-0.8-2-0.8c-1,0-1.9,0.4-2.6,1.3
			c-0.7,0.9-1,2-1,3.3c0,2.3,1.2,3.5,3.5,3.5c0.7,0,1.4-0.1,2.1-0.3l0.3-2c-0.7,0.3-1.4,0.5-2.1,0.5c-0.6,0-1.1-0.1-1.4-0.4
			c-0.3-0.3-0.4-0.7-0.4-1.2H52.4z M49.8,29.8c0.2,0,0.3,0,0.4,0.1c0.1,0,0.2,0.1,0.3,0.2l0.2,0.2c0,0.1,0.1,0.2,0.1,0.3
			c0,0.1,0,0.2,0,0.3c0,0.1,0,0.1,0,0.2v0.1h-2.3C48.6,30.3,49.1,29.8,49.8,29.8z"/>
	</g>
	<path d="M67.9,28.1c-0.7,0-1.5,0.1-2.5,0.4c-0.2,1.1-0.3,1.7-0.3,1.8c0.7-0.2,1.5-0.4,2.2-0.4c0.9,0,1.3,0.2,1.3,0.7
		c0,0.1,0,0.3-0.1,0.5c-0.2,0-0.5,0-0.8,0c-1.2,0-2,0.3-2.7,0.8c-0.6,0.5-0.9,1.3-0.9,2.2c0,0.6,0.2,1.2,0.5,1.5
		c0.3,0.4,0.8,0.6,1.4,0.6c1,0,1.7-0.3,2.2-1l0,0.8h1.7c0.1-0.8,0.3-2.2,0.6-4.2c0.1-0.6,0.1-1.1,0.1-1.5
		C70.6,28.8,69.7,28.1,67.9,28.1z M67.9,34c-0.3,0.4-0.6,0.6-1,0.6c-0.5,0-0.7-0.3-0.7-0.8c0-0.8,0.6-1.2,1.8-1.2h0.4
		C68.3,33.2,68.2,33.6,67.9,34z"/>
	<path d="M60.4,33.6c-0.3-0.4-0.5-1-0.5-1.7c0-1.1,0.2-1.9,0.7-2.6c0.5-0.7,1.1-1,1.9-1c0.5,0,1.2,0.2,1.8,0.5l0.3-2.1
		c-0.9-0.3-1.6-0.5-2.2-0.5c-1.4,0-2.5,0.5-3.4,1.6c-0.9,1.1-1.3,2.5-1.3,4.2c0,1.3,0.3,2.3,1,3c0.7,0.7,1.5,1.1,2.6,1.1
		c0.5,0,1.2-0.1,1.8-0.3l0.4-2.2c-0.7,0.3-1.3,0.5-1.8,0.5C61.2,34.2,60.7,34,60.4,33.6z"/>
</g>
</svg>
