<?xml version="1.0" encoding="utf-8"?>
<!-- Generator: Adobe Illustrator 18.1.1, SVG Export Plug-In . SVG Version: 6.00 Build 0)  -->
<!DOCTYPE svg PUBLIC "-//W3C//DTD SVG 1.1//EN" "http://www.w3.org/Graphics/SVG/1.1/DTD/svg11.dtd">
<svg version="1.1" id="Layer_1" xmlns="http://www.w3.org/2000/svg" xmlns:xlink="http://www.w3.org/1999/xlink" x="0px" y="0px"
	 viewBox="0 0 100 64" enable-background="new 0 0 100 64" xml:space="preserve">
<path d="M41.9,44.7c0-0.7-0.4-1.3-1.2-1.3c-0.8,0-1.4,0.6-1.6,1.6h2.4C41.8,45.1,41.9,44.9,41.9,44.7z"/>
<path d="M21.2,40.1c-0.6,0-0.8,0-1.1,0.1v7.6c0,1.1,0.8,1.2,1.4,1.2c3,0,4-2.3,4-4.3C25.6,42,23.9,40.1,21.2,40.1z"/>
<path d="M96.7,0H3.3C1.5,0,0,1.5,0,3.3v55.8c0,1.8,1.5,3.3,3.3,3.3h93.3c1.8,0,3.3-1.5,3.3-3.3V3.3C100,1.5,98.5,0,96.7,0z
	 M29.1,39.5c0.4,0,0.7,0.3,0.7,0.7c0,0.4-0.3,0.7-0.7,0.7c-0.4,0-0.7-0.3-0.7-0.7C28.4,39.8,28.7,39.5,29.1,39.5z M21.4,49.4
	c-0.7,0-1.4,0-2,0c-0.6,0-1.2,0-1.9,0V49c0.8-0.1,1.2-0.1,1.3-1.1v-6.8c0-1.3-0.7-1.2-1.3-1.2v-0.4c0.5,0,1.1,0,1.6,0
	c0.6,0,1.4,0,2.4,0c3.6,0,5.6,2.4,5.6,4.9C27.1,45.9,26.3,49.4,21.4,49.4z M30.6,49.4c-0.5,0-1,0-1.5,0c-0.5,0-1,0-1.5,0V49h0.3
	c0.4,0,0.7,0,0.7-0.5v-3.8c0-0.6-0.2-0.7-0.7-1v-0.2c0.7-0.2,1.4-0.5,1.5-0.5c0.1-0.1,0.2-0.1,0.3-0.1c0.1,0,0.1,0.1,0.1,0.2v5.3
	c0,0.5,0.3,0.5,0.7,0.5h0.2V49.4z M38,49.4c-0.5,0-1,0-1.5,0c-0.5,0-1,0-1.5,0V49h0.2c0.4,0,0.7,0,0.7-0.5V45c0-0.8-0.5-1.2-1.3-1.2
	c-0.4,0-1.2,0.4-1.6,0.7v4.1c0,0.5,0.3,0.5,0.7,0.5H34v0.4c-0.5,0-1,0-1.5,0c-0.5,0-1,0-1.5,0V49h0.3c0.4,0,0.7,0,0.7-0.5v-3.7
	c0-0.5-0.2-0.7-0.8-0.9v-0.3c0.6-0.2,1.2-0.4,1.8-0.7c0,0,0.1,0,0.1,0.1v0.9c0.8-0.6,1.5-1,2.4-1c1.2,0,1.6,0.9,1.6,2v3.6
	c0,0.5,0.3,0.5,0.7,0.5H38V49.4z M40.6,49.6c-2.2,0-2.7-2.1-2.7-3c0-2.7,1.8-3.5,2.8-3.5c1.1,0,2.3,0.7,2.4,2.2l0,0.3l-0.1,0.1H39
	c0,0.1,0,0.3,0,0.8c0.1,1.3,0.9,2.4,2,2.4c0.8,0,1.4-0.4,1.9-0.9l0.2,0.2C42.5,48.9,41.7,49.6,40.6,49.6z M47.5,44.5
	c-0.4,0-0.4-0.3-0.9-0.3c-0.2,0-1,0.3-1,1.2v3.3c0,0.5,0.3,0.5,0.7,0.5H47v0.4c-0.8,0-1.3,0-1.9,0c-0.6,0-1.2,0-1.7,0V49h0.4
	c0.4,0,0.7,0,0.7-0.5v-3.9c0-0.4-0.5-0.5-0.7-0.6v-0.2c1-0.4,1.6-0.8,1.7-0.8c0.1,0,0.1,0,0.1,0.2v1.3h0c0.3-0.5,0.9-1.4,1.8-1.4
	c0.3,0,0.8,0.2,0.8,0.7C48.2,44.1,47.9,44.5,47.5,44.5z M50.4,49.6c-0.6,0-1.2-0.2-1.7-0.5l-0.2-1.6l0.3-0.1
	c0.2,0.9,0.7,1.7,1.8,1.7c0.8,0,1.1-0.5,1.1-1c0-1.6-3-1.1-3-3.4c0-0.8,0.6-1.8,2.2-1.8c0.4,0,1,0.1,1.6,0.4l0.1,1.4h-0.3
	c-0.1-0.9-0.6-1.4-1.5-1.4c-0.6,0-1.1,0.3-1.1,0.9c0,1.6,3.2,1.1,3.2,3.3C52.8,48.6,52,49.6,50.4,49.6z M46.9,38.7
	c-7.3,0-13.3-5.9-13.3-13.1c0-7.9,6-13.3,13.3-13.3h6.2c7.2,0,13.8,5.4,13.8,13.3c0,7.2-6.6,13.1-13.8,13.1H46.9z M65,48.9
	c-0.6,0.4-2.2,0.7-3.1,0.7c-3.3,0-5.3-2.1-5.3-5.2c0-2.9,2.5-4.9,5.3-4.9c1.1,0,2.2,0.4,3.3,0.7l0.1,2H65c-0.3-1.6-1.4-2.3-3-2.3
	c-1.6,0-3.9,1.1-3.9,4.4c0,2.8,2,4.8,4.2,4.8c1.4,0,2.5-0.9,2.8-2.4l0.3,0.1L65,48.9z M68.8,49.4c-0.5,0-1,0-1.5,0c-0.5,0-1,0-1.5,0
	V49h0.3c0.4,0,0.7,0,0.7-0.5v-7.8c0-0.9-0.2-0.9-0.7-1.1v-0.2c0.6-0.2,1.1-0.4,1.4-0.6c0.2-0.1,0.3-0.2,0.3-0.2
	c0.1,0,0.1,0.1,0.1,0.2v9.6c0,0.5,0.3,0.5,0.7,0.5h0.2V49.4z M75.7,49.2c-0.6,0.1-1.7,0.3-2,0.4l-0.1,0v-1.1
	c-0.8,0.7-1.5,1.2-2.5,1.2c-0.8,0-1.5-0.5-1.5-1.7v-3.6c0-0.4-0.1-0.7-0.8-0.8v-0.3c0.5,0,1.6-0.1,1.8-0.1c0.2,0,0.2,0.1,0.2,0.4
	v3.6c0,0.4,0,1.6,1.2,1.6c0.5,0,1.1-0.4,1.7-0.8v-3.7c0-0.3-0.7-0.4-1.2-0.6v-0.3c1.3-0.1,2-0.2,2.2-0.2c0.1,0,0.1,0.1,0.1,0.3v5.1
	c0,0.3,0.2,0.3,0.4,0.3c0.2,0,0.4,0,0.6,0V49.2z M78.9,49.6c-1,0-1.6-0.3-1.9-0.5l-0.4,0.3l-0.3-0.2c0.1-0.8,0.2-1.6,0.2-2.5v-6
	c0-0.9-0.2-0.9-0.7-1.1v-0.2c0.6-0.2,1.1-0.4,1.4-0.6c0.2-0.1,0.3-0.2,0.3-0.2c0.1,0,0.1,0.1,0.1,0.2V44c0.6-0.5,1.3-1,2.1-1
	c1.6,0,2.6,1.4,2.6,2.9C82.2,47.8,80.9,49.6,78.9,49.6z"/>
<path d="M78.9,43.8c-0.5,0-0.9,0.3-1.3,0.7v3.4c0,0.5,0.5,1.4,1.4,1.4c1.5,0,2.1-1.5,2.1-2.7C81.1,45,80,43.8,78.9,43.8z"/>
<path d="M46.9,13.5c-6.7,0-12.1,5.4-12.1,12.1c0,6.7,5.4,12.1,12.1,12.1c6.7,0,12.1-5.4,12.1-12.1C59,18.9,53.6,13.5,46.9,13.5z
	 M44.2,32.7c-2.9-1.1-4.9-3.9-4.9-7.1c0-3.3,2-6,4.9-7.1V32.7z M49.7,32.7V18.4c2.9,1.1,4.9,3.9,4.9,7.1
	C54.6,28.8,52.5,31.6,49.7,32.7z"/>
</svg>
