<?xml version="1.0" encoding="utf-8"?>
<!-- Generator: Adobe Illustrator 18.1.1, SVG Export Plug-In . SVG Version: 6.00 Build 0)  -->
<!DOCTYPE svg PUBLIC "-//W3C//DTD SVG 1.1//EN" "http://www.w3.org/Graphics/SVG/1.1/DTD/svg11.dtd">
<svg version="1.1" id="Layer_1" xmlns="http://www.w3.org/2000/svg" xmlns:xlink="http://www.w3.org/1999/xlink" x="0px" y="0px"
	 viewBox="0 0 100 64" enable-background="new 0 0 100 64" xml:space="preserve">
<path d="M61.7,32.4c-0.4,0.2-0.7,0.4-1,0.8c-0.2,0.3-0.4,0.9-0.4,1.7c0,0.8,0.1,1.4,0.4,1.7c0.3,0.3,0.7,0.5,1.3,0.5
	c0.8,0,1.5-0.4,2-1.1c0.5-0.7,0.7-1.7,0.7-2.9v-1.6c-0.6,0.3-1.2,0.5-1.7,0.6C62.6,32.1,62.1,32.3,61.7,32.4z"/>
<path d="M96.7,0H3.3C1.5,0,0,1.5,0,3.3v55.8c0,1.8,1.5,3.3,3.3,3.3h93.3c1.8,0,3.3-1.5,3.3-3.3V3.3C100,1.5,98.5,0,96.7,0z
	 M77.7,26.8h1.7v0.4h-0.6v1.7h-0.4v-1.7h-0.6V26.8z M64.4,27.1c-0.3-0.3-0.8-0.4-1.4-0.4c-0.4,0-0.7,0.1-1,0.2
	c-0.3,0.1-0.5,0.3-0.7,0.6c-0.2,0.3-0.4,0.7-0.6,1.2c-0.2,0.5-0.4,1.1-0.7,1.9h-0.5V27c0.6-0.2,1.1-0.4,1.6-0.6
	c0.5-0.1,1.1-0.2,1.7-0.2c0.7,0,1.3,0.1,1.8,0.2c0.5,0.2,0.9,0.4,1.2,0.6c0.3,0.3,0.6,0.6,0.7,0.9c0.2,0.3,0.2,0.7,0.2,1v8.1h1v0.5
	h-2.9v-1.9h-0.1c-0.3,0.7-0.7,1.2-1.3,1.6c-0.6,0.4-1.3,0.6-2,0.6c-1,0-1.8-0.3-2.4-0.8c-0.6-0.5-0.9-1.3-0.9-2.2
	c0-0.6,0.1-1.1,0.3-1.5c0.2-0.4,0.5-0.7,0.9-0.9c0.4-0.2,0.8-0.4,1.3-0.5c0.5-0.1,1-0.2,1.4-0.3c0.5-0.1,1-0.2,1.4-0.3
	c0.5-0.1,0.9-0.3,1.3-0.5v-2.3C64.9,27.9,64.7,27.4,64.4,27.1z M49.3,42.5c-23.4,0-31.1,2.6-31.1,2.6c3.6-1.7,8.1-3,13.2-4
	c-6.2-0.4-11.1-5.6-11.1-11.9c0-6.6,5.4-12,12-12c5.7,0,10.5,4.1,11.7,9.5h4v0.5h-1.4l2.9,8.3h0l1.7-4.9L50,27.2h-1.3v-0.5h5.4v0.5
	h-2l2.9,8.3h0l2.9-8.3h-1.8v-0.5h2.9v0.5h-0.5l-3.8,10.6h-1.1l-2.2-6.4h0l-2.3,6.4h-1.1l-3.7-10.6H44c0.1,0.7,0.2,1.3,0.2,2
	c0,5.1-3.2,9.5-7.7,11.2c4-0.5,8.3-0.7,12.8-0.8c7.6-0.1,13.9,0.7,18.8,1.7c-0.2-0.1-0.4-0.2-0.5-0.3v-3.4h0.5l0.6,2.1
	c0.2,0.6,0.3,0.9,0.5,1.1c0.2,0.2,0.3,0.2,0.5,0.2c0.2,0,0.4-0.1,0.6-0.3c0.2-0.2,0.4-0.4,0.6-0.7c0.2-0.3,0.3-0.7,0.5-1.1
	c0.2-0.4,0.3-0.8,0.4-1.3l-4.4-10.5h-0.8v-0.5h4.6v0.5h-1.6l3.2,7.6l2.6-7.6h-1.9v-0.5H77v0.5h-1l-4,11.4c-0.2,0.6-0.4,1.1-0.6,1.5
	c-0.2,0.4-0.4,0.7-0.6,0.9c-0.2,0.2-0.4,0.4-0.7,0.4c-0.2,0.1-0.5,0.1-0.8,0.1c-0.1,0-0.2,0-0.3,0c7.5,1.6,11.5,3.6,11.4,3.5
	C66.1,42.7,61.8,42.5,49.3,42.5z M81.8,28.8h-0.4v-1.4h0l-0.5,1.4h-0.3L80,27.4h0v1.4h-0.4v-2h0.6l0.5,1.4h0l0.4-1.4h0.6V28.8z"/>
<path d="M40.3,32.5l-4.7-0.1c-0.3,0.7-0.5,0.9-1.2,1.4c-0.4,0.3-0.9,0.3-1.9,0.3c-1.4,0-2.2-0.5-2.7-1.1c-0.6-0.6-0.9-1-0.9-2.7
	h11.6c0-0.3,0-1.1,0-1.2c0-2.5-0.9-4.9-2.3-6.3c-1.4-1.4-3.6-2-5.8-2c-2.2,0-4.6,0.8-6,2.2c-1.4,1.4-2.2,3.7-2.2,6.3
	c0,2.5,0.9,4.9,2.3,6.3c1.4,1.4,3.7,2,6.1,2c1.9,0,3.8-0.5,5-1.3C38.8,35.5,39.9,34.1,40.3,32.5z M30.1,25.3
	c0.6-0.5,1.3-0.8,2.2-0.8c1,0,2,0.5,2.6,1.1c0.3,0.3,0.8,0.8,0.8,2.1h-6.6C29.1,26.6,29.4,25.9,30.1,25.3z"/>
</svg>
