<?xml version="1.0" encoding="utf-8"?>
<!-- Generator: Adobe Illustrator 18.1.1, SVG Export Plug-In . SVG Version: 6.00 Build 0)  -->
<!DOCTYPE svg PUBLIC "-//W3C//DTD SVG 1.1//EN" "http://www.w3.org/Graphics/SVG/1.1/DTD/svg11.dtd">
<svg version="1.1" id="Layer_1" xmlns="http://www.w3.org/2000/svg" xmlns:xlink="http://www.w3.org/1999/xlink" x="0px" y="0px"
	 viewBox="0 0 100 64" enable-background="new 0 0 100 64" xml:space="preserve">
<path d="M96.7,0H3.3C1.5,0,0,1.5,0,3.3v55.8c0,1.8,1.5,3.3,3.3,3.3h93.3c1.8,0,3.3-1.5,3.3-3.3V3.3C100,1.5,98.5,0,96.7,0z
	 M16.1,38.2c-1.5,0-2.8-0.4-3.5-0.9l0.9-2.5c0.6,0.3,1.8,0.8,2.9,0.8c1,0,1.5-0.5,1.5-1.2c0-0.6-0.4-1.1-1.5-1.7
	c-1.3-0.8-2.3-1.8-2.3-3.3c0-2.5,2.1-4.3,5.2-4.3c1.4,0,2.4,0.3,3,0.6l-0.8,2.5c-0.5-0.2-1.3-0.5-2.2-0.5c-1,0-1.6,0.5-1.6,1.2
	c0,0.6,0.5,1,1.4,1.5c1.4,0.8,2.5,1.9,2.5,3.4C21.6,36.7,19.3,38.2,16.1,38.2z M34.4,30.7L33,38h-3.5l1.3-7.1
	c0.1-0.5,0.2-1.1,0.2-1.6c0-0.8-0.3-1.3-1.1-1.3c-1.1,0-2.3,1.4-2.8,3.8L25.8,38h-3.5l3.4-18.1h3.5L27.9,27l0.1,0
	c1-1.1,2.2-1.9,3.7-1.9c1.8,0,2.9,1.2,2.9,3.2C34.6,29,34.5,29.9,34.4,30.7z M40.4,38.2c-3.2,0-4.9-2.2-4.9-4.9
	c0-4.3,2.8-8.1,7.1-8.1c3.3,0,4.8,2.4,4.8,4.9C47.4,34.5,44.6,38.2,40.4,38.2z M53.2,38.2c-0.9,0-1.7-0.2-2.1-0.5h-0.1l-1,5.2h-3.5
	L49,30.1c0.3-1.5,0.6-3.4,0.7-4.7h3.1l-0.2,1.9h0.1c0.9-1.3,2.3-2.1,3.7-2.1c2.6,0,3.6,2.1,3.6,4.5C60.1,34,57.4,38.2,53.2,38.2z
	 M63.7,38h-3.5l2.4-12.5h3.6L63.7,38z M64.8,23.9L64.8,23.9c-1.1,0-1.7-0.7-1.7-1.8c0-1.2,0.9-2,2-2c1.1,0,1.8,0.7,1.8,1.8
	C66.9,23.2,65.9,23.9,64.8,23.9z M70.4,38h-3.5l1.9-9.9h-1.6l0.5-2.7h1.6l0.1-0.6c0.3-1.5,0.8-3,2.1-4c0.9-0.8,2.2-1.2,3.5-1.2
	c0.9,0,1.5,0.1,1.9,0.3L76,22.7c-0.3-0.1-0.7-0.2-1.1-0.2c-1.2,0-1.9,1.1-2.1,2.3l-0.1,0.6h2.5l-0.5,2.7h-2.4L70.4,38z M83,34.7
	c-1.5,3.2-3,5.5-4.6,7c-1.3,1.2-2.7,1.8-3.5,1.9l-1-3c0.6-0.2,1.3-0.5,2-1c0.8-0.6,1.5-1.3,1.9-2.1c0.1-0.2,0.1-0.3,0.1-0.6
	l-2.1-11.5h3.7l0.6,5.6c0.2,1.3,0.3,2.2,0.3,3h0.1c0.3-0.8,0.5-1.6,1.1-3l2.2-5.6h3.7L83,34.7z"/>
<path d="M42.1,27.9c-1.9,0-3,3.3-3,5.3c0,1.3,0.5,2.3,1.7,2.3c1.9,0,2.9-3.3,2.9-5.5C43.8,29,43.4,27.9,42.1,27.9z"/>
<path d="M55,28.1c-1.2,0-2.4,1.5-2.8,3.7l-0.6,3.3c0.4,0.3,0.8,0.5,1.5,0.5c2,0,3.3-3.3,3.3-5.5C56.4,29.1,56.1,28.1,55,28.1z"/>
</svg>
