<?xml version="1.0" encoding="utf-8"?>
<!-- Generator: Adobe Illustrator 18.1.1, SVG Export Plug-In . SVG Version: 6.00 Build 0)  -->
<!DOCTYPE svg PUBLIC "-//W3C//DTD SVG 1.1//EN" "http://www.w3.org/Graphics/SVG/1.1/DTD/svg11.dtd">
<svg version="1.1" id="Layer_1" xmlns="http://www.w3.org/2000/svg" xmlns:xlink="http://www.w3.org/1999/xlink" x="0px" y="0px"
	 viewBox="0 0 100 64" enable-background="new 0 0 100 64" xml:space="preserve">
<path d="M66.3,31.9c-0.7-0.1-2.8,0.1-3.5,0.2c-0.8,0.2-1.6,0.4-2.3,0.8c-0.7,0.4-1.2,1-1.5,1.8c-0.1,0.5-0.2,0.9-0.1,1.4
	c0.1,1.4,0.9,2.4,2.3,2.6c1.4,0.3,2.7-0.1,3.8-1.1c0.9-0.8,1.3-1.8,1.3-3c0-0.9,0-1.8,0-2.7V31.9z"/>
<path d="M52.6,21.1c-0.9-0.5-1.9-0.8-2.9-0.8c-0.9-0.1-1.7,0-2.6,0.1c-0.3,0-0.7,0.1-1,0.1c0,0.1,0,0.2,0,0.2c0,2.9,0,5.8,0,8.7
	c0,0.3,0,0.3,0.3,0.4c0.9,0.2,1.8,0.2,2.8,0.2c0.9,0,1.8-0.2,2.7-0.6c1.2-0.5,2-1.3,2.4-2.6c0.3-1,0.4-2.1,0.2-3.2
	C54.2,22.5,53.5,21.7,52.6,21.1z"/>
<path d="M96.7,0H3.3C1.5,0,0,1.5,0,3.3v55.8c0,1.8,1.5,3.3,3.3,3.3h93.3c1.8,0,3.3-1.5,3.3-3.3V3.3C100,1.5,98.5,0,96.7,0z
	 M30.2,19.4c0.9-1.1,2-1.7,3.3-1.9l0.3,0l0.1,0c0.1,0.5,0,1-0.1,1.5c-0.5,1.6-1.4,2.8-3,3.5c-0.5,0.2-0.9,0.3-1.4,0.3
	c-0.1,0-0.2,0-0.2-0.2C29.1,21.3,29.5,20.3,30.2,19.4z M38.5,34.7c-0.6,1.6-1.6,3-2.7,4.3c-0.5,0.5-1,0.9-1.7,1
	c-0.7,0.2-1.4,0.1-2.1-0.2c-0.5-0.2-1-0.4-1.5-0.5c-1-0.2-1.9-0.1-2.8,0.3c-0.4,0.2-0.9,0.3-1.3,0.5c-1,0.2-1.8,0-2.5-0.7
	c-0.6-0.6-1.2-1.2-1.7-1.9c-1.3-1.7-2.1-3.7-2.5-5.8c-0.2-0.9-0.2-1.7-0.2-2.6c0.1-1.5,0.5-3,1.6-4.2c1-1.1,2.2-1.8,3.6-2
	c0.9-0.1,1.7,0,2.6,0.3c0.4,0.2,0.9,0.3,1.3,0.5c0.4,0.2,0.9,0.2,1.3,0c0.6-0.2,1.2-0.4,1.8-0.6c2-0.6,3.8-0.3,5.5,1
	c0.4,0.3,0.7,0.6,0.9,1c-3.7,2.3-3.2,7.3,0.6,8.9C38.7,34.3,38.6,34.5,38.5,34.7z M55.7,27.1c-0.5,1.5-1.5,2.6-2.9,3.3
	c-1.1,0.5-2.2,0.8-3.4,0.9c-0.9,0.1-1.9,0-2.8-0.1c-0.2,0-0.3-0.1-0.5-0.1c0,2.9,0,5.9,0,8.8c-0.5,0-1,0-1.5,0l0-0.2
	c0-6.7,0-13.4,0-20.1c0-0.2,0.1-0.2,0.3-0.2c0.7-0.1,1.5-0.2,2.2-0.3c0.9-0.1,1.8-0.1,2.6-0.1c0.9,0,1.8,0.2,2.6,0.4
	c1.2,0.4,2.3,1.1,3,2.2c0.5,0.8,0.7,1.7,0.8,2.6C56.1,25.2,56,26.2,55.7,27.1z M67.2,39.8c-0.1,0-0.3,0-0.4,0c-0.1,0-0.1,0-0.2-0.1
	c-0.1-0.6-0.1-1.3-0.2-1.9l0-0.1l-0.1,0.1c-1,1.3-2.3,2.1-4,2.3c-1,0.1-1.9,0-2.8-0.4c-1.2-0.6-1.9-1.5-2.1-2.8
	c-0.3-1.6,0.1-3,1.3-4.2c0.8-0.8,1.7-1.2,2.8-1.5c1.1-0.3,2.3-0.5,3.5-0.5c0.5,0,0.9,0,1.4,0c0-0.1,0-0.2,0-0.3c0-0.8,0-1.5-0.3-2.3
	c-0.4-1.2-1.2-1.9-2.5-2.2C63,26,62.3,26,61.7,26c-1,0.1-2,0.5-2.8,1l-0.1,0c-0.2-0.4-0.3-0.7-0.5-1.1c0.4-0.2,0.8-0.5,1.3-0.6
	c1.2-0.5,2.4-0.6,3.7-0.6c0.9,0.1,1.8,0.3,2.5,0.9c0.9,0.7,1.5,1.6,1.7,2.7c0.2,0.8,0.2,1.5,0.2,2.3c0,2.2,0,4.3,0,6.5
	c0,0.9,0,1.7,0.2,2.6l0,0.1C67.7,39.8,67.4,39.8,67.2,39.8z M80.9,27.7c-1.5,3.8-3,7.5-4.5,11.3c-0.6,1.5-1.4,3-2.3,4.4
	c-0.8,1.1-1.7,2-2.9,2.7c-0.4,0.2-0.8,0.4-1.2,0.6c-0.2-0.4-0.3-0.8-0.5-1.2c0.3-0.1,0.5-0.3,0.8-0.4c1.1-0.6,2-1.4,2.8-2.4
	c0.7-0.8,1.2-1.8,1.6-2.8c0.1-0.3,0.1-0.6,0-0.9c-0.4-1-0.8-2.1-1.2-3.1c-1.4-3.5-2.8-7-4.2-10.6l-0.1-0.2l0.2,0c0.4,0,0.8,0,1.2,0
	c0.1,0,0.2,0,0.2,0.2c0.8,2,1.6,4.1,2.4,6.1c0.6,1.6,1.3,3.2,1.9,4.8c0.2,0.5,0.3,1,0.5,1.5c0,0,0,0.1,0.1,0.2l0.1-0.1
	c1.4-4.2,3.1-8.3,4.6-12.5c0-0.1,0.1-0.2,0.3-0.2c0.4,0,0.8,0,1.2,0H82C81.6,26,81.3,26.8,80.9,27.7z"/>
</svg>
