<?xml version="1.0" encoding="utf-8"?>
<!-- Generator: Adobe Illustrator 18.1.1, SVG Export Plug-In . SVG Version: 6.00 Build 0)  -->
<!DOCTYPE svg PUBLIC "-//W3C//DTD SVG 1.1//EN" "http://www.w3.org/Graphics/SVG/1.1/DTD/svg11.dtd">
<svg version="1.1" id="Layer_1" xmlns="http://www.w3.org/2000/svg" xmlns:xlink="http://www.w3.org/1999/xlink" x="0px" y="0px"
	 viewBox="0 0 100 64" enable-background="new 0 0 100 64" xml:space="preserve">
<g>
	<path d="M96.7,0H3.3C1.5,0,0,1.5,0,3.3v55.8c0,1.8,1.5,3.3,3.3,3.3h93.3c1.8,0,3.3-1.5,3.3-3.3V3.3C100,1.5,98.5,0,96.7,0z
		 M40.8,43.7c-0.1,2-1.1,3.6-2.9,4.6c-0.7,0.4-1.6,0.6-2.3,0.9c-3.2,0-6.3,0-9.5,0c0-4.2,0-8.4,0-12.7c0.1,0,0.2,0,0.3,0
		c2.4,0.6,4.8,0.8,7.2,0.7c1.5-0.1,2.9-0.3,4.2-1.1c1.2-0.8,1.8-1.9,1.8-3.3c0-1.8,0-3.6,0-5.4c0-0.6,0-1.2,0-1.8
		c-1.8,0-3.4,0-5.1,0c0,2.2,0,4.3,0,6.4c0,1.7-0.6,2.9-2.2,3.3c-0.8,0.2-1.7,0.2-2.4,0c-1.3-0.3-2.6-0.8-3.9-1.2
		c0-5.1,0-10.3,0-15.4c0-0.1,0.1-0.1,0.1-0.2c0.3-2.2,1.5-3.7,3.4-4.6c0.4-0.2,0.8-0.4,1.3-0.5c3.3,0,6.7,0,10,0
		c0,7.6,0,15.3,0.1,22.9C40.9,38.7,40.9,41.2,40.8,43.7z M57.5,22.7c0,6.8,0,13.6,0,20.3c0,2.4-1,4.2-3.1,5.4
		c-0.7,0.4-1.4,0.6-2.1,0.8c-3.2,0-6.4,0-9.7,0c0-4.6,0-9.1,0-13.7c1.1,0.5,2.1,0.9,3.1,1.3c2,0.6,4.1,0.5,6.1,0.4
		c1.2-0.1,2.4-0.4,3.6-0.6c0.1,0,0.3-0.2,0.3-0.4c0-0.7,0-1.3,0-2c-0.2,0-0.2-0.1-0.3,0c-0.2,0.1-0.3,0.1-0.5,0.2
		c-1.5,0.7-3,1-4.7,1c-2.2,0-4.1-1.2-4.3-3.6c-0.2-2.3,0.9-4.2,3.3-4.6c1.6-0.3,3.2-0.1,4.8,0.5c0.6,0.2,1.1,0.5,1.7,0.7
		c0-0.9-0.1-1.7-0.1-2.5c-2.4-0.7-4.8-0.8-7.2-0.7c-1,0-2,0.2-2.9,0.5c-1,0.3-2,0.8-3,1.2c0-2.7-0.1-5.5,0-8.2
		c0.1-2.2,1.3-3.8,3.3-4.8c0.5-0.2,0.9-0.4,1.4-0.6c3.4,0,6.8,0,10.1,0C57.5,16.5,57.5,19.6,57.5,22.7z M73.9,44.1
		c-0.1,1.9-1.2,3.4-3,4.3c-0.7,0.4-1.5,0.6-2.2,0.9c-3.2,0-6.4,0-9.5,0c0-0.2-0.1-0.4-0.1-0.6c0-3.7,0-7.4,0.1-11.2
		c0-0.1,0-0.3,0-0.4c0.3,0,0.5,0,0.7,0c2.7,0,5.4,0,8.1,0c0.8,0,1.7-0.2,2.4-0.5c1.1-0.4,1.8-1.4,1.7-2.6c0-1.2-0.8-2-1.9-2.4
		c-0.5-0.2-1-0.3-1.5-0.4c0.4-0.1,0.7-0.2,1-0.3c1.9-0.7,2.3-3,0.9-4.3c-0.6-0.6-1.4-0.8-2.3-0.8c-1.8,0-3.7,0-5.5,0
		c-1.2,0-2.5,0-3.8,0c0-0.5,0-0.9,0-1.3c0-1.6,0.1-3.2,0.1-4.8c0-2.5,1.1-4.3,3.2-5.5c0.5-0.3,1-0.4,1.5-0.7c3.3,0,6.7,0,10,0
		c0,0.9,0.1,1.8,0.1,2.7c0,6.9,0,13.7,0,20.6c0,0.2,0,0.4,0,0.6C74,39.5,74,41.8,73.9,44.1z M66,32c0.8,0,1.3,0.8,1.2,1.6
		c0,0.8-0.6,1.5-1.4,1.5c-1.2,0-2.5,0-3.7,0c0-1.1,0-2.1,0-3.2C63.4,32,64.7,31.9,66,32z M62.1,30.2c0-1,0-1.9,0-2.9
		c1.1,0,2.3,0,3.4,0c0.8,0,1.4,0.8,1.3,1.6c-0.1,0.8-0.6,1.3-1.5,1.3C64.3,30.2,63.2,30.2,62.1,30.2z"/>
</g>
</svg>
