<?xml version="1.0" encoding="utf-8"?>
<!-- Generator: Adobe Illustrator 18.1.1, SVG Export Plug-In . SVG Version: 6.00 Build 0)  -->
<!DOCTYPE svg PUBLIC "-//W3C//DTD SVG 1.1//EN" "http://www.w3.org/Graphics/SVG/1.1/DTD/svg11.dtd">
<svg version="1.1" id="Layer_1" xmlns="http://www.w3.org/2000/svg" xmlns:xlink="http://www.w3.org/1999/xlink" x="0px" y="0px"
	 viewBox="0 0 100 64" enable-background="new 0 0 100 64" xml:space="preserve">
<path d="M36.1,28.9c-1.2,0-2.3,0.9-2.3,3c0,2,0.8,3.1,2.3,3.1c1.3,0,2.3-1,2.3-3.1C38.4,29.9,37.7,28.9,36.1,28.9z"/>
<path d="M62.8,25.7c-0.4,0-0.7,0-1,0v4.5c0.3,0,0.6,0.1,0.9,0.1c1.7,0,2.7-0.9,2.7-2.4C65.4,26.5,64.6,25.7,62.8,25.7z"/>
<path d="M52.4,32.2c0,1.8,0.6,2.8,1.8,2.8c1.4,0,2.2-1.7,2.2-3.3V29c-0.5-0.1-1-0.2-1.4-0.2C53.5,28.8,52.4,29.7,52.4,32.2z"/>
<path d="M69.5,33.9c0,0.7,0.5,1.2,1.2,1.2c1.3,0,2.2-1.3,2.2-2.6v-0.3C70.2,32.3,69.5,33,69.5,33.9z"/>
<path d="M96.7,0H3.3C1.5,0,0,1.5,0,3.3v55.8c0,1.8,1.5,3.3,3.3,3.3h93.3c1.8,0,3.3-1.5,3.3-3.3V3.3C100,1.5,98.5,0,96.7,0z M80.2,24
	h1.6v0.2h-0.7v1.7h-0.3v-1.7h-0.6V24z M26.7,36.4l-2.1-7.6c-0.2-0.7-0.3-1.5-0.5-2.3h0c-0.1,0.8-0.2,1.5-0.4,2.3l-2.1,7.6h-2.3
	l-3.2-12.3h2.1l1.9,7.5c0.2,0.8,0.4,1.6,0.5,2.4h0c0.1-0.8,0.3-1.6,0.5-2.3l2.1-7.5h2.2l2.1,7.6c0.2,0.7,0.4,1.5,0.5,2.3h0
	c0.1-0.8,0.3-1.5,0.4-2.1l1.9-7.7h2l-3.2,12.3H26.7z M35.9,36.6c-2.5,0-4.1-1.4-4.1-4.6c0-2.7,1.8-4.8,4.5-4.8
	c2.4,0,4.1,1.3,4.1,4.5C40.4,34.5,38.6,36.6,35.9,36.6z M46.1,29.1c-1.8-0.3-2.7,0.9-2.7,3.6v3.7h-1.9v-9h1.9c0,0.5-0.1,1.3-0.2,2h0
	c0.4-1.2,1.3-2.3,3-2.2L46.1,29.1z M49.2,36.4h-1.9V24.1h1.9V36.4z M58.4,36.4h-1.8c0-0.5,0-1.2,0.1-1.7h0c-0.5,1.1-1.5,1.9-2.9,1.9
	c-2.2,0-3.3-1.6-3.3-4.3c0-3.1,1.8-5.1,4.7-5.1c0.4,0,0.9,0,1.4,0.1v-3.3h1.9V36.4z M62.7,31.9c-0.3,0-0.6,0-0.9,0v4.5h-2V24.2
	c0.9,0,2-0.1,3.1-0.1c2.9,0,4.5,1.4,4.5,3.7C67.5,30.2,65.6,31.9,62.7,31.9z M73.2,34.7c-0.4,1.1-1.6,1.9-3,1.9
	c-1.5,0-2.5-1-2.5-2.5c0-2,2-3.1,5.3-3.1v-0.5c0-1.1-0.5-1.7-1.9-1.7c-0.8,0-1.9,0.3-2.6,0.7l-0.4-1.6c0.9-0.3,2.1-0.6,3.3-0.6
	c2.7,0,3.5,1.2,3.5,3V34c0,0.8,0,1.7,0.1,2.5h-1.9C73.1,35.9,73.1,35.3,73.2,34.7L73.2,34.7z M80.2,37.1c-1.1,3-2.3,3.9-4.4,3.9
	c-0.3,0-0.8-0.1-1.1-0.1l0.2-1.7c0.3,0.1,0.7,0.1,1.1,0.1c0.9,0,1.7-0.4,2.3-2l0.3-0.9l-3.4-9h2.2l1.5,4.1c0.3,0.8,0.5,1.6,0.7,2.4
	h0c0.2-0.7,0.6-1.9,0.9-2.8l1.3-3.7h2.1L80.2,37.1z M83.9,25.9h-0.2v-1.6h0L83,25.9h-0.2l-0.6-1.7h0v1.7H82v-2h0.4l0.5,1.4
	c0.1,0.2,0.1,0.2,0.1,0.3h0c0-0.1,0-0.1,0.1-0.3l0.5-1.4h0.3V25.9z"/>
</svg>
