<?xml version="1.0" encoding="utf-8"?>
<!-- Generator: Adobe Illustrator 18.1.1, SVG Export Plug-In . SVG Version: 6.00 Build 0)  -->
<!DOCTYPE svg PUBLIC "-//W3C//DTD SVG 1.1//EN" "http://www.w3.org/Graphics/SVG/1.1/DTD/svg11.dtd">
<svg version="1.1" id="Layer_1" xmlns="http://www.w3.org/2000/svg" xmlns:xlink="http://www.w3.org/1999/xlink" x="0px" y="0px"
	 viewBox="0 0 100 64" enable-background="new 0 0 100 64" xml:space="preserve">
<path d="M78.6,27.5h-0.7v3.3h0.6c1.4,0,2.1-0.6,2.1-1.7C80.6,28,79.9,27.5,78.6,27.5z"/>
<path d="M83.9,26.5L83.9,26.5l0,0.2h0c0.1,0,0.2,0,0.2-0.1C84.1,26.5,84.1,26.5,83.9,26.5z"/>
<path d="M96.7,0H3.3C1.5,0,0,1.5,0,3.3v55.8c0,1.8,1.5,3.3,3.3,3.3h93.3c1.8,0,3.3-1.5,3.3-3.3V3.3C100,1.5,98.5,0,96.7,0z
	 M22.2,35.4c-1.1,0.9-2.3,1.3-3.9,1.3h-3.1v-11h3.1c3.5,0,5.9,2.2,5.9,5.5C24.2,32.8,23.4,34.4,22.2,35.4z M27.3,36.7h-2.1v-11h2.1
	V36.7z M31.9,37c-1.6,0-2.8-0.6-3.8-2.1l1.4-1.3c0.5,1,1.3,1.5,2.3,1.5c1,0,1.7-0.7,1.7-1.5c0-0.5-0.2-0.9-0.6-1.1
	c-0.2-0.1-0.6-0.3-1.5-0.6c-2-0.7-2.7-1.5-2.7-3c0-1.8,1.5-3.1,3.4-3.1c1.2,0,2.3,0.4,3.2,1.2l-1.1,1.5c-0.6-0.6-1.1-0.9-1.7-0.9
	c-0.9,0-1.6,0.5-1.6,1.2c0,0.6,0.4,0.9,1.7,1.4c2.4,0.9,3.2,1.7,3.2,3.4C35.6,35.5,34.1,37,31.9,37z M44.8,28.7
	c-0.9-0.9-1.7-1.2-2.7-1.2c-2,0-3.6,1.7-3.6,3.8c0,2.2,1.5,3.8,3.7,3.8c1,0,1.7-0.3,2.6-1.2v2.5c-1,0.5-1.8,0.6-2.7,0.6
	c-3.3,0-5.8-2.5-5.8-5.7c0-3.2,2.6-5.7,5.8-5.7c0.9,0,1.7,0.2,2.6,0.7V28.7z M51.4,37c-3.3,0-5.8-2.5-5.8-5.8c0-3.1,2.6-5.6,5.8-5.6
	c3.3,0,5.8,2.5,5.8,5.7C57.3,34.5,54.7,37,51.4,37z M62.6,37h-1.1l-4.7-11.2h2.3l2.9,7.4l3-7.4h2.3L62.6,37z M74.4,27.6h-3.9V30h3.8
	v1.9h-3.8v3h3.9v1.9h-6.1v-11h6.1V27.6z M81.2,36.7l-3-4.4h-0.3v4.4h-2.1v-11H79c2.5,0,3.9,1.2,3.9,3.2c0,1.7-0.9,2.8-2.5,3.1
	l3.4,4.6H81.2z M84,27.6c-0.5,0-0.8-0.4-0.8-0.8c0-0.5,0.4-0.8,0.8-0.8c0.5,0,0.8,0.4,0.8,0.8C84.9,27.2,84.5,27.6,84,27.6z"/>
<path d="M17.8,27.6h-0.6v7.2h0.6c1.4,0,2.3-0.3,2.9-0.9c0.7-0.7,1.2-1.7,1.2-2.8c0-1-0.4-2.1-1.2-2.7C20.1,27.9,19.2,27.6,17.8,27.6
	z"/>
<path d="M84,26.1c-0.4,0-0.7,0.3-0.7,0.7c0,0.4,0.3,0.7,0.7,0.7c0.4,0,0.7-0.3,0.7-0.7C84.7,26.4,84.4,26.1,84,26.1z M84.2,27.2
	l-0.3-0.4v0.4h-0.2v-1H84c0.2,0,0.4,0.1,0.4,0.3c0,0.1-0.1,0.2-0.2,0.3l0.3,0.4H84.2z"/>
</svg>
