<?xml version="1.0" encoding="utf-8"?>
<!-- Generator: Adobe Illustrator 18.1.1, SVG Export Plug-In . SVG Version: 6.00 Build 0)  -->
<!DOCTYPE svg PUBLIC "-//W3C//DTD SVG 1.1//EN" "http://www.w3.org/Graphics/SVG/1.1/DTD/svg11.dtd">
<svg version="1.1" id="Layer_1" xmlns="http://www.w3.org/2000/svg" xmlns:xlink="http://www.w3.org/1999/xlink" x="0px" y="0px"
	 viewBox="0 0 100 64" enable-background="new 0 0 100 64" xml:space="preserve">
<path d="M55.6,26.5c0-3.7-5.6-3.1-7.3-3.1v6.3C50.1,29.6,55.6,30,55.6,26.5z"/>
<path d="M48.3,32.8l0,6.9c2.1,0,8.8,0.4,8.8-3.5C57.1,32.2,50.4,32.8,48.3,32.8z"/>
<path d="M96.7,0H3.3C1.5,0,0,1.5,0,3.3v55.8c0,1.8,1.5,3.3,3.3,3.3h93.3c1.8,0,3.3-1.5,3.3-3.3V3.3C100,1.5,98.5,0,96.7,0z
	 M63.3,36.8c-0.5,4.9-4.2,6.3-9.4,6.6l0,5.2h-3.1l0-5.1c-0.8,0-1.6,0-2.5,0l0,5.2l-3.1,0l0-5.2c-0.7,0-1.5,0-2.2,0h-4.1l0.6-3.7
	l2.3,0c0.9,0,1.1-0.6,1.2-1v-8.2l0-5.9c-0.1-0.6-0.5-1.4-1.8-1.4l-2.3,0l0-3.3l4.3,0v0c0.7,0,1.3,0,2,0l0-5.1l3.1,0l0,5
	c0.8,0,1.7,0,2.5,0l0-5h3.1l0,5.2c4.1,0.4,7.3,1.6,7.6,5.3c0.3,2.7-0.9,4.3-2.7,5.3C61.8,31.1,63.7,32.9,63.3,36.8z"/>
</svg>
