<?xml version="1.0" encoding="utf-8"?>
<!-- Generator: Adobe Illustrator 18.1.1, SVG Export Plug-In . SVG Version: 6.00 Build 0)  -->
<!DOCTYPE svg PUBLIC "-//W3C//DTD SVG 1.1//EN" "http://www.w3.org/Graphics/SVG/1.1/DTD/svg11.dtd">
<svg version="1.1" id="Layer_1" xmlns="http://www.w3.org/2000/svg" xmlns:xlink="http://www.w3.org/1999/xlink" x="0px" y="0px"
	 viewBox="0 0 100 64" enable-background="new 0 0 100 64" xml:space="preserve">
<path d="M96.7,0H3.3C1.5,0,0,1.5,0,3.3v55.8c0,1.8,1.5,3.3,3.3,3.3h93.3c1.8,0,3.3-1.5,3.3-3.3V3.3C100,1.5,98.5,0,96.7,0z
	 M65.5,49.2c-0.2,0.4-0.4,0.8-0.7,1.2l0,0c-0.5,0.6-1.2,1-2,1.3l-0.2,0.1c-0.1,0-0.3,0.1-0.4,0.1c-0.2,0-0.4,0.1-0.6,0.1l-0.1,0l0,0
	l0,0l-0.1,0l-0.1,0l-0.2,0c-0.5,0-1-0.1-1.5-0.4c-2-0.9-2.9-3.1-2.4-5.1c0.1-5.4-1.3-9.7-3.2-13.1c-0.1,4-1.2,8.2-3.9,12.1
	c-0.8,1.2-2.1,1.8-3.4,1.8c-0.8,0-1.7-0.2-2.4-0.8c-1.2-0.8-1.8-2.2-1.8-3.6l0-0.1c0.1-9.3-9.6-14.6-9.7-14.6
	c-2-1.1-2.8-3.6-1.7-5.7c1.1-2,3.7-2.8,5.7-1.7c0.3,0.2,4.5,2.5,8.3,6.9c-0.5-2.6-1.3-4.6-1.7-5.4c-0.1-0.1-0.1-0.3-0.2-0.4l0,0
	l0-0.1c0-0.1-0.1-0.2-0.1-0.3c-0.7-2,0.1-4.2,2.1-5.2c0.9-0.5,2-0.5,2.9-0.3c0.4,0.1,0.9,0.2,1.3,0.4c0.4,0.2,6.4,3.6,11.1,10.7
	c-0.7-6-2.7-9.9-2.7-10c-1.1-2.2-0.3-4.8,1.9-5.9c2.2-1.1,4.8-0.3,5.9,1.9C65.8,13.7,74.2,30.1,65.5,49.2z"/>
</svg>
