<?xml version="1.0" encoding="utf-8"?>
<!-- Generator: Adobe Illustrator 18.1.1, SVG Export Plug-In . SVG Version: 6.00 Build 0)  -->
<!DOCTYPE svg PUBLIC "-//W3C//DTD SVG 1.1//EN" "http://www.w3.org/Graphics/SVG/1.1/DTD/svg11.dtd">
<svg version="1.1" id="Layer_1" xmlns="http://www.w3.org/2000/svg" xmlns:xlink="http://www.w3.org/1999/xlink" x="0px" y="0px"
	 viewBox="0 0 100 64" enable-background="new 0 0 100 64" xml:space="preserve">
<path fill="#141414" d="M60.6,25c-0.1,0-0.2,0-0.3,0v1.2l0.2,0c0.7,0,1.1-0.2,1.1-0.6C61.5,25.2,61.2,25,60.6,25z"/>
<path fill="#141414" d="M60.6,33.2c-0.7,0-0.9,0.7-0.9,2.1c0,1.3,0.2,2,0.9,2c0.7,0,0.9-0.7,0.9-2.2C61.5,33.8,61.3,33.2,60.6,33.2z
	"/>
<path fill="#141414" d="M96.7,0H3.3C1.5,0,0,1.5,0,3.3v55.8c0,1.8,1.5,3.3,3.3,3.3h93.3c1.8,0,3.3-1.5,3.3-3.3V3.3
	C100,1.5,98.5,0,96.7,0z M23.6,30.5h-3.1l-0.6-4.5l-0.6,4.5h-3.1l-1.5-7h2.5l0.6,4.3l0.7-4.3h2.9l0.7,4.4l0.7-4.4h2.4L23.6,30.5z
	 M32.4,30.5h-6.1v-7h6v1.8h-3V26h2.9v1.8h-2.9v0.8h3.1V30.5z M33.7,28.2h2.8v0.1c0,0.5,0.1,0.8,0.7,0.8c0.4,0,0.6-0.2,0.6-0.4
	c0-0.2,0-0.4-0.3-0.5c-0.4-0.2-0.9-0.4-1.9-0.7c-1.3-0.4-1.9-0.9-1.9-1.9c0-1.4,1.2-2.3,3.5-2.3c2.1,0,3.2,0.7,3.2,2v0.3h-2.6
	c0-0.5-0.2-0.8-0.7-0.8c-0.4,0-0.6,0.2-0.6,0.5c0,0.5,0.6,0.5,1.5,0.8c1.8,0.6,2.5,1,2.5,2.3c0,1.5-1.2,2.3-3.5,2.3
	c-2.3,0-3.5-0.8-3.5-2.1L33.7,28.2z M41,36c0,2-1.2,2.9-3.6,2.9c-1.3,0-2.3-0.2-2.9-0.9c-0.6-0.6-0.7-1.2-0.7-2v-4.2h2.9v4.3
	c0,0.6,0.2,0.9,0.7,0.9c0.4,0,0.7-0.3,0.7-0.9v-4.3H41V36z M41.4,23.4h6.7v1.9h-1.8v5.1h-3v-5.1h-1.9V23.4z M50.2,38.8h-3.4l-1.6-4
	v4h-2.3v-7h3.7l1.3,3.6v-3.6h2.3V38.8z M55.1,38.8h-3v-7h3V38.8z M55.5,30.5h-6.1v-7h6v1.8h-3V26h2.9v1.8h-2.9v0.8h3.1V30.5z
	 M60.6,38.9c-2.5,0-3.9-1.3-3.9-3.7c0-2.4,1.4-3.7,4-3.7c2.6,0,4,1.3,4,3.7C64.6,37.7,63.2,38.9,60.6,38.9z M61.7,30.5
	c-0.1-0.3-0.2-0.7-0.2-1L61.4,29c-0.1-0.8-0.2-1-0.9-1c-0.1,0-0.2,0-0.3,0v2.5h-2.9v-7h4.1c2.1,0,3,0.4,3,1.8c0,0.8-0.6,1.4-1.4,1.6
	c0.8,0.2,1.2,0.5,1.3,1.6l0.1,0.8c0,0.3,0.1,0.7,0.3,1.2H61.7z M66.2,23.4h3.7l1.3,3.6v-3.6h2.3v7H70l-1.6-4v4h-2.3V23.4z
	 M73.5,38.8h-3.4l-1.6-4v4h-2.3v-7h3.7l1.3,3.6v-3.6h2.3V38.8z M77.4,39.2h-0.6V23.4h0.6V39.2z M85,39.2h-0.6V23.5H85V39.2z
	 M89,25.3c-0.2,0.2-0.5,0.3-0.8,0.3c-0.3,0-0.6-0.1-0.8-0.3c-0.2-0.2-0.3-0.5-0.3-0.8c0-0.3,0.1-0.6,0.3-0.8
	c0.2-0.2,0.5-0.3,0.8-0.3c0.3,0,0.6,0.1,0.8,0.3c0.2,0.2,0.3,0.5,0.3,0.8C89.3,24.8,89.2,25.1,89,25.3z"/>
<path fill="#141414" d="M88.2,24H88v0.4h0.2c0.2,0,0.3-0.1,0.3-0.2C88.5,24,88.4,24,88.2,24z"/>
<path fill="#141414" d="M88.2,23.5c-0.3,0-0.5,0.1-0.7,0.3c-0.2,0.2-0.3,0.5-0.3,0.7c0,0.3,0.1,0.5,0.3,0.7c0.2,0.2,0.4,0.3,0.7,0.3
	c0.3,0,0.5-0.1,0.7-0.3c0.2-0.2,0.3-0.4,0.3-0.7c0-0.3-0.1-0.5-0.3-0.7C88.7,23.6,88.5,23.5,88.2,23.5z M88.8,25.1h-0.3l-0.3-0.6H88
	v0.6h-0.2v-1.3h0.5c0.4,0,0.5,0.1,0.5,0.4c0,0.2-0.1,0.3-0.3,0.4L88.8,25.1z"/>
</svg>
