<?xml version="1.0" encoding="utf-8"?>
<!-- Generator: Adobe Illustrator 18.1.1, SVG Export Plug-In . SVG Version: 6.00 Build 0)  -->
<!DOCTYPE svg PUBLIC "-//W3C//DTD SVG 1.1//EN" "http://www.w3.org/Graphics/SVG/1.1/DTD/svg11.dtd">
<svg version="1.1" id="Layer_1" xmlns="http://www.w3.org/2000/svg" xmlns:xlink="http://www.w3.org/1999/xlink" x="0px" y="0px"
	 viewBox="0 0 100 64" enable-background="new 0 0 100 64" xml:space="preserve">
<g>
	<path d="M96.7,0H3.3C1.5,0,0,1.5,0,3.3v55.8c0,1.8,1.5,3.3,3.3,3.3h93.3c1.8,0,3.3-1.5,3.3-3.3V3.3C100,1.5,98.5,0,96.7,0z
		 M24.7,42.4L20,24.9c1.6,0.7,3.1,1.7,4.5,3c1.3,1.4,2.3,2.8,2.9,4.4c-2.1-5.9-6.7-9.7-13.8-11.5l0.1-0.4h9.2c1.5,0,2.3,0.6,2.6,1.8
		l2,10.1l0.6,3l5.5-15h6l-8.9,21.9H24.7z M38.3,42.4l3.6-21.9h5.7L44,42.4H38.3z M61,40.7c-1.8,1.4-4.2,2-7.1,2
		c-2.5,0-4.6-0.4-6.3-1.2l0.8-4.9l0.8,0.4c1.6,0.8,3.4,1.1,5.3,1.1c0.9,0,1.7-0.2,2.4-0.5c0.7-0.4,1-0.9,1-1.6
		c0-0.5-0.2-0.9-0.6-1.3c-0.4-0.4-1.2-0.9-2.3-1.4c-3.3-1.6-5-3.6-5-5.9c0-2.1,0.9-3.9,2.7-5.2c1.8-1.3,4.1-2,6.9-2
		c1.8,0,3.5,0.3,5.1,0.9l-0.8,4.8l-0.5-0.3c-1.2-0.6-2.6-0.8-4.2-0.8c-1,0-1.9,0.2-2.4,0.6c-0.6,0.4-0.8,0.8-0.8,1.3
		c0,0.5,0.3,0.9,0.8,1.3c0.5,0.4,1.3,0.9,2.4,1.4c3.2,1.6,4.8,3.5,4.8,5.9C63.7,37.5,62.8,39.3,61,40.7z M75.1,26.4
		c-0.1,0.2-0.2,0.5-0.3,0.9c-0.1,0.4-0.3,0.7-0.3,0.9l-0.1,0.3c-1.2,3.2-1.9,5.3-2.3,6.1h4.7l-1.3-6.3L75.1,26.4z M78.4,42.4
		c-0.3-1.7-0.6-2.8-0.7-3.3h-7.2l-1.2,3.3h-5.9l8.4-20.1c0.5-1.2,1.5-1.8,3-1.8h4.4l4.6,21.9H78.4z"/>
</g>
</svg>
