<?xml version="1.0" encoding="utf-8"?>
<!-- Generator: Adobe Illustrator 18.1.1, SVG Export Plug-In . SVG Version: 6.00 Build 0)  -->
<!DOCTYPE svg PUBLIC "-//W3C//DTD SVG 1.1//EN" "http://www.w3.org/Graphics/SVG/1.1/DTD/svg11.dtd">
<svg version="1.1" id="Layer_1" xmlns="http://www.w3.org/2000/svg" xmlns:xlink="http://www.w3.org/1999/xlink" x="0px" y="0px"
	 viewBox="0 0 100 64" enable-background="new 0 0 100 64" xml:space="preserve">
<path fill="#1D1E1E" d="M43.3,27.1c-5.3,0.1-5.2,5.6-5.2,5.6s-0.1,5.6,5.2,5.6c5.2-0.1,5.2-5.5,5.2-5.5S48.6,27,43.3,27.1z"/>
<path fill="#1D1E1E" d="M60.3,33c0,0-5.3-0.2-5.1,2.7c0.2,2.7,3.5,2.7,3.5,2.7c6,0.1,5.4-5.3,5.4-5.3L60.3,33z"/>
<path fill="#1D1E1E" d="M96.7,0H3.3C1.5,0,0,1.5,0,3.3v55.8c0,1.8,1.5,3.3,3.3,3.3h93.3c1.8,0,3.3-1.5,3.3-3.3V3.3
	C100,1.5,98.5,0,96.7,0z M44,40.5c-4.4,0-5.9-2.5-5.9-2.5l-0.1,2h-3.2c0.1-1.4,0.1-3.4,0.1-3.4l0-3.3c0,0.2,0,0.3,0,0.3H21.5
	c0,0,0.2,4.7,5,4.8c3.7,0.1,4.4-2.5,4.4-2.5l3.5,0c0,0-0.4,4.7-7.9,4.7c-8.7,0-8.3-7.5-8.3-7.5c0-1.7,0.3-8.1,8.5-8.1
	c7,0,8.1,5.1,8.2,7.5l0-13.3h3.3v8.3c0,0,1.8-2.5,5.9-2.5c4.2,0,8,2.8,7.9,7.9C51.9,37.8,48.4,40.5,44,40.5z M64.4,39.9l-0.1-2.1
	c-1.3,1.7-3.1,2.6-6.1,2.6c-3.1,0-7-1.4-6.3-5.8c0.6-3.7,6.7-3.9,8.4-3.9c1,0,3.9,0,3.9,0c0-2-0.6-3.7-4-3.8
	c-3.6-0.1-3.8,2.3-3.8,2.3h-3.5c0.7-5.1,7.6-4.5,7.6-4.5c7.2,0.3,7,4.3,7.1,6c0.1,1.4,0,3.5,0,5.7c0,2.3,0.1,3.4,0.1,3.4L64.4,39.9z
	 M74,45.5h-3.7l3-5.6l-7.7-14.5h3.9l5.7,11.3l5.7-11.3h3.5L74,45.5z M86.1,25.8h-0.3v0.4l0.1,0.1l0.1,0v0.1l-0.2,0
	c-0.2,0-0.3-0.1-0.3-0.2v-0.4h-0.1v-0.2h0.1v-0.2h0.2v0.2h0.3V25.8z M87.9,26.4h-0.2V26c0-0.1-0.1-0.2-0.2-0.2
	c-0.1,0-0.2,0.1-0.2,0.2v0.4H87V26c0-0.1-0.1-0.2-0.2-0.2c-0.1,0-0.2,0.1-0.2,0.2v0.4h-0.2v-0.8h0.2v0.1c0.1-0.1,0.2-0.1,0.3-0.1
	c0.1,0,0.3,0.1,0.3,0.1c0.1-0.1,0.2-0.1,0.3-0.1c0.2,0,0.4,0.1,0.4,0.3V26.4z"/>
<path fill="#1D1E1E" d="M26.6,27c-4.8,0-5,4.2-5,4.2h9.7C31.3,31.3,31.3,27,26.6,27z"/>
<path fill="#231F20" d="M85.8,25.4h-0.2v0.2h-0.1v0.2h0.1v0.4c0,0.2,0.1,0.2,0.3,0.2l0.2,0v-0.1l-0.1,0l-0.1-0.1v-0.4h0.3v-0.2h-0.3
	V25.4z"/>
<path fill="#231F20" d="M87.5,25.6c-0.2,0-0.3,0.1-0.3,0.1c-0.1-0.1-0.2-0.1-0.3-0.1c-0.2,0-0.2,0.1-0.3,0.1v-0.1h-0.2v0.8h0.2V26
	c0-0.1,0.1-0.2,0.2-0.2c0.1,0,0.2,0.1,0.2,0.2v0.4h0.2V26c0-0.1,0.1-0.2,0.2-0.2c0.1,0,0.2,0.1,0.2,0.2v0.4h0.2v-0.5
	C87.9,25.7,87.7,25.6,87.5,25.6z"/>
</svg>
