<?xml version="1.0" encoding="utf-8"?>
<!-- Generator: Adobe Illustrator 18.1.1, SVG Export Plug-In . SVG Version: 6.00 Build 0)  -->
<!DOCTYPE svg PUBLIC "-//W3C//DTD SVG 1.1//EN" "http://www.w3.org/Graphics/SVG/1.1/DTD/svg11.dtd">
<svg version="1.1" id="Layer_1" xmlns="http://www.w3.org/2000/svg" xmlns:xlink="http://www.w3.org/1999/xlink" x="0px" y="0px"
	 viewBox="0 0 100 64" enable-background="new 0 0 100 64" xml:space="preserve">
<path d="M41.9,33.5c-0.9,0-2.4,0.2-3,1c-0.4,0.5-0.5,1.1-0.2,1.7c0.5,1.1,1.7,1.2,2.9,1.4c1.5,0.2,2.9,0,3.8-0.2
	c2-0.6,1.5-2.5,1.4-3.8H41.9z"/>
<path d="M96.7,0H3.3C1.5,0,0,1.5,0,3.3v55.8c0,1.8,1.5,3.3,3.3,3.3h93.3c1.8,0,3.3-1.5,3.3-3.3V3.3C100,1.5,98.5,0,96.7,0z
	 M79.9,33.7l-12.7,0c0,1.6,0.2,1.8,0.8,2.5c1.1,1.2,3.1,1.5,4.9,1.3c1.6-0.2,2.9-0.9,3.8-1.7l2.7,1.9c-0.4,0.4-0.9,0.8-1.3,1.2h0
	c-0.9,0.6-1.9,1.1-3,1.4c-2.4,0.6-4.6,0.6-6.5,0c-1.2-0.4-1.9-0.8-2.8-1.4l-0.1-0.1l0,0.1c0,0.9-0.1,1.7-0.3,2.8
	c-0.4,2-1.1,3.3-2.9,4.4c-2.7,1.6-6.7,2.1-10.1,0.6c-1.2-0.6-2-1-2.8-1.9l3.1-2.1c1.8,1.3,3.9,2.1,6.1,1.2c1.3-0.5,2.5-1.4,2.6-2.8
	l0-2.2c-2.5,1.9-6.6,2.5-9.3,0.9c-0.5-0.3-1.1-0.8-1.1-0.8v1.7H47V39c-1.5,1.7-3.1,1.6-5.2,1.7c-3.4,0.2-4.8-1.1-5.8-1.8
	c-1.3,0.8-2.8,1.4-4.4,1.6c-3.3,0.5-6.9-0.1-9.7-1.7h0c-0.3-0.2-0.7-0.4-1-0.6c-0.3-0.2-0.8-0.6-0.8-0.6l2.8-2.3
	c2.5,1.6,3.5,2,6.2,2.2c3.2,0.2,4.5-1.3,4.5-2.3c0-0.8-0.7-1.4-1.4-1.5c-1.6-0.3-3-0.3-5.1-0.5c-2.4-0.3-3.7-0.9-4.9-2.5
	c-0.6-0.9-0.9-2.5-0.3-3.9c0.3-0.7,0.6-1.1,1.1-1.6c1.6-1.4,3.9-1.9,6.3-2c2.7,0,5.2,0.8,7.1,1.8c2-1.5,4.6-1.8,7.2-1.7
	c2.2,0.1,5.1,0.5,6.9,2.5c0.9-1,1.8-1.6,3.2-2c1.7-0.5,3-0.6,4.4-0.4c1.3,0.2,2.6,1,3.6,1.9v-1.8l4.3,0v1.8c1-0.8,3.1-2,5.8-2
	c6.4,0,8.4,4.8,8.4,7.3V33.7z"/>
<path d="M42.7,30.4c1.7,0.1,4.1,0,4.1,0s0.2-2.3,0-2.6c-0.4-0.6-1.2-1.1-3.9-1.1c-2,0-2.7,0-4.8,1.5l-1.8-1.6l-1.7,1.6
	c-1.5-1-3.3-1.5-4.9-1.6c-0.8,0-2.2-0.1-3.3,0.6c-0.8,0.5-0.9,1.8-0.3,2.2c1,0.8,2.8,0.8,4.8,0.9c1.5,0.1,2.6,0,4,0.6
	c0.8,0.4,1.5,0.9,1.5,0.9c0.9-0.7,1.7-1.1,2.9-1.3C40.6,30.3,41.3,30.3,42.7,30.4z"/>
<path d="M61.2,29.2c-0.1-1-0.9-1.7-2-2.1c-0.6-0.2-1.3-0.4-2-0.4c-0.9,0-1.8,0.3-2.6,0.7c-0.8,0.4-1.4,1-1.4,1.5
	c-0.1,1-0.2,2-0.2,2.9c-0.1,1.5,0,2.8,0.4,3.6c0.5,1,2.1,1.7,3.8,1.8c1.3,0.1,2.3-0.4,3-1c0.6-0.5,0.9-1,1.1-1.6
	c0.2-0.9,0.2-1.9,0.2-2.9C61.4,31,61.3,30.1,61.2,29.2z"/>
<path d="M72,26.3c-1.5,0-3.1,0.5-4,1.8c-0.4,0.6-0.7,1.5-0.7,2.5h9.5c0-1.1-0.3-1.9-0.8-2.6C75,26.8,73.5,26.3,72,26.3z"/>
</svg>
