<?xml version="1.0" encoding="utf-8"?>
<!-- Generator: Adobe Illustrator 18.1.1, SVG Export Plug-In . SVG Version: 6.00 Build 0)  -->
<!DOCTYPE svg PUBLIC "-//W3C//DTD SVG 1.1//EN" "http://www.w3.org/Graphics/SVG/1.1/DTD/svg11.dtd">
<svg version="1.1" id="Layer_1" xmlns="http://www.w3.org/2000/svg" xmlns:xlink="http://www.w3.org/1999/xlink" x="0px" y="0px"
	 viewBox="0 0 100 64" enable-background="new 0 0 100 64" xml:space="preserve">
<path d="M96.7,0H3.3C1.5,0,0,1.5,0,3.3v55.8c0,1.8,1.5,3.3,3.3,3.3h93.3c1.8,0,3.3-1.5,3.3-3.3V3.3C100,1.5,98.5,0,96.7,0z M63.1,21
	c1.4,0,2.5,1.1,2.5,2.5c0,1.4-1.1,2.5-2.5,2.5c-1.4,0-2.5-1.1-2.5-2.5C60.6,22.1,61.7,21,63.1,21z M27.1,41.5
	c-2.5,0-4.7-0.3-6.6-0.8v-4.5c1.3,0.5,3.4,1.1,5.6,1.1c2,0,3.2-0.7,3.2-1.8c0-1.4-1.4-1.4-2-1.5c-6.4-0.4-7.1-4.2-7.1-5.9
	c0-2.8,2-6.1,7.6-6.1c3.3,0,5,0.5,6.5,1l0.1,0v4.3v0.1l-0.1,0c-0.6-0.3-1.3-0.5-1.3-0.5c-1.3-0.4-3.1-0.8-4.5-0.8
	c-0.8,0-2.9,0-2.9,1.6c0,1.3,1.5,1.4,2.1,1.4c4.6,0.3,7.4,2.6,7.4,6C35,38.4,32.6,41.5,27.1,41.5z M49.8,41.3h-6.2
	c0,0-0.7-3.4-2.2-5.6v5.6h-5.1V23.2l5.1-1v10c1.9-2.3,2.7-4.6,2.8-4.9h5.9c-0.2,0.5-1.2,3.8-3.6,6.8C46.5,34.1,49.2,38.7,49.8,41.3z
	 M59.1,31.2c-2.9,0.1-3.2,1.2-3.2,3.6v6.4h-5v-7.9c0-4.1,2.3-6.2,6.9-6.3c0,0,0.8,0,1.3,0.1V31.2z M65.5,41.3h-5v-14h5V41.3z
	 M72.6,41.3h-5V23l5-0.9V41.3z M79.9,41.3h-5V23l5-0.9V41.3z"/>
</svg>
