<?xml version="1.0" encoding="utf-8"?>
<!-- Generator: Adobe Illustrator 18.1.1, SVG Export Plug-In . SVG Version: 6.00 Build 0)  -->
<!DOCTYPE svg PUBLIC "-//W3C//DTD SVG 1.1//EN" "http://www.w3.org/Graphics/SVG/1.1/DTD/svg11.dtd">
<svg version="1.1" id="Layer_1" xmlns="http://www.w3.org/2000/svg" xmlns:xlink="http://www.w3.org/1999/xlink" x="0px" y="0px"
	 viewBox="0 0 100 64" enable-background="new 0 0 100 64" xml:space="preserve">
<path d="M71.9,32.1c-0.1,0-1.1,0.1-1.5,0.2c-0.5,0.1-1,0.2-1.4,0.3c-0.4,0.1-0.7,0.3-0.9,0.6c-0.2,0.3-0.3,0.6-0.3,1
	c0,0.4,0.1,0.6,0.4,0.8c0.3,0.2,0.7,0.2,1.2,0.2c0.3,0,0.7-0.1,1.1-0.2c0.3-0.1,0.6-0.3,0.8-0.4c0.1-0.1,0.3-0.3,0.3-0.4
	c0.1-0.5,0.4-1.6,0.4-1.8C72.1,32,72.1,32.1,71.9,32.1z"/>
<path d="M23.2,25.9c-0.4-0.3-1-0.4-1.8-0.4l-0.7,0c-0.4,0-0.9,0.4-1,0.8l-0.6,2.7c-0.1,0.4,0.2,0.8,0.6,0.8h0.5c1.1,0,2-0.2,2.6-0.7
	c0.6-0.5,0.9-1.1,0.9-2C23.8,26.5,23.6,26.1,23.2,25.9z"/>
<path d="M96.7,0H3.3C1.5,0,0,1.5,0,3.3v55.8c0,1.8,1.5,3.3,3.3,3.3h93.3c1.8,0,3.3-1.5,3.3-3.3V3.3C100,1.5,98.5,0,96.7,0z
	 M25.6,30.9c-1.4,1-3.4,1.6-5.9,1.6h-0.6c-0.4,0-0.9,0.4-1,0.8l-0.7,3.1c-0.1,0.4-0.5,0.8-1,0.8h-2.1c-0.4,0-0.7-0.4-0.6-0.8
	l2.9-12.7c0.1-0.4,0.5-0.8,1-0.8l4.3,0c0.9,0,1.8,0.1,2.5,0.2c0.7,0.1,1.3,0.3,1.8,0.7c0.5,0.3,0.9,0.7,1.1,1.2
	c0.3,0.5,0.4,1.1,0.4,1.9C27.7,28.5,27,29.9,25.6,30.9z M38.5,29.3c0,0.2,0,0.4-0.1,0.5l-1.5,6.5c-0.1,0.4-0.5,0.7-0.9,0.8l0,0h-0.3
	c-0.4,0-1.3,0-1.6,0l0,0h0l0,0c-0.4,0-0.6-0.4-0.6-0.8l0,0l0,0l0.1-0.3l0,0c-0.3,0.2-0.5,0.3-0.8,0.5c-0.3,0.2-0.6,0.4-0.9,0.5
	c-0.4,0.2-0.7,0.3-1,0.3c-0.3,0.1-0.7,0.1-1.3,0.1c-0.9,0-1.6-0.2-2.2-0.8c-0.6-0.5-0.8-1.2-0.8-2c0-0.8,0.2-1.6,0.6-2.2
	c0.4-0.6,1-1.1,1.8-1.4c0.7-0.3,1.6-0.6,2.6-0.7c1-0.1,1.9-0.3,3.1-0.3c0.2,0,0.3-0.1,0.3-0.2c0-0.1,0-0.2,0-0.3
	c0-0.4-0.2-0.8-0.6-0.9c-0.4-0.2-1.1-0.3-1.9-0.3c-0.6,0-1.3,0.1-1.9,0.3c-0.7,0.2-0.9,0.3-1.2,0.4c-0.2,0.1-0.5,0.1-0.4-0.6l0.3-1
	c0,0,0.1-0.8,0.9-1c0.4-0.1,0.4-0.1,1.1-0.2c0.8-0.1,1.7-0.2,2.5-0.2c1.7,0,2.9,0.2,3.7,0.7c0.8,0.4,1.2,1.1,1.2,2.1
	C38.5,28.9,38.5,29.1,38.5,29.3z M41.8,42.2l-2.1,0c-0.4,0-0.6-0.4-0.3-0.8l1.8-3.2c0,0,0.2-0.2,0-1.2c-0.3-1.9-1.7-9.9-1.7-9.9
	c-0.1-0.4,0.2-0.8,0.6-0.8l1.9,0c0.6,0,1,0.4,1.1,0.8c0,0,0.9,5.5,0.9,5.6c0,0.1,0.2,0.3,0.3,0c0.3-0.5,3.3-5.6,3.3-5.6
	c0.3-0.4,0.9-0.8,1.3-0.8c0,0,2,0,2.5,0c0.7,0-0.1,1.2-0.1,1.2l-8.3,14C42.8,41.8,42.2,42.2,41.8,42.2z M63.3,30.9
	c-1.4,1-3.4,1.6-5.9,1.6h-0.6c-0.4,0-0.9,0.4-1,0.8l-0.7,3.1c-0.1,0.4-0.6,0.8-1,0.8l-2.1,0c-0.4,0-0.7-0.4-0.6-0.8l2.9-12.7
	c0.1-0.4,0.5-0.8,1-0.8l4.3,0c0.9,0,1.8,0.1,2.4,0.2c0.7,0.1,1.3,0.3,1.8,0.7c0.5,0.3,0.9,0.7,1.1,1.2c0.3,0.5,0.4,1.1,0.4,1.9
	C65.4,28.5,64.7,29.9,63.3,30.9z M76.2,29.3c0,0.2,0,0.4-0.1,0.5l-1.5,6.5c-0.1,0.4-0.5,0.7-0.9,0.8l0,0h-0.3c-0.4,0-1.3,0-1.6,0
	l0,0h0l0,0c-0.4,0-0.6-0.4-0.6-0.8l0,0l0,0l0.1-0.3l0,0c-0.3,0.2-0.5,0.3-0.8,0.5c-0.3,0.2-0.6,0.4-0.9,0.5c-0.4,0.2-0.7,0.3-1,0.3
	c-0.3,0.1-0.7,0.1-1.3,0.1c-0.9,0-1.6-0.2-2.2-0.8c-0.6-0.5-0.8-1.2-0.8-2c0-0.9,0.2-1.6,0.6-2.2c0.4-0.6,1-1.1,1.8-1.4
	c0.7-0.3,1.6-0.6,2.6-0.7c1-0.2,1.9-0.3,3.1-0.3c0.2,0,0.3-0.1,0.3-0.2c0-0.1,0-0.2,0-0.3c0-0.4-0.2-0.8-0.6-0.9
	c-0.4-0.2-1.1-0.3-1.9-0.3c-0.6,0-1.3,0.1-1.9,0.3c-0.7,0.2-0.9,0.3-1.2,0.4c-0.2,0.1-0.5,0.1-0.4-0.6l0.3-1c0,0,0.1-0.8,0.9-1
	c0.4-0.1,0.4-0.1,1.1-0.2c0.8-0.1,1.7-0.2,2.5-0.2c1.7,0,2.9,0.2,3.7,0.7c0.8,0.4,1.2,1.1,1.2,2.1C76.2,28.9,76.2,29.1,76.2,29.3z
	 M80,36.4L80,36.4c-0.2,0.5-0.6,0.8-1,0.8h-1.9l0,0c-0.4,0-0.6-0.4-0.5-0.8l0,0c0,0,0.1-0.2,0.1-0.5l2.6-11.6
	c0.1-0.3,0.1-0.5,0.1-0.5l0-0.1c0.1-0.4,0.5-0.7,1-0.7l0,0l0,0h1.9c0.4,0,0.7,0.4,0.6,0.8l0,0L80,36.4z M85,23.8h-0.7v0.9
	c0,0.1,0,0.2,0,0.2l0.1,0.2l0.1,0.1c0,0,0.1,0,0.2,0l0.2,0l0.1,0h0v0.3l-0.2,0l-0.2,0c-0.2,0-0.4-0.1-0.5-0.2
	c-0.1-0.1-0.2-0.3-0.2-0.5v-1.1h-0.2v-0.3h0.2V23h0.3v0.6H85V23.8z M88.4,25.6H88v-1.2l0-0.3L87.9,24l-0.1-0.1c-0.1,0-0.1,0-0.2,0
	c-0.1,0-0.2,0-0.3,0.1c-0.1,0-0.2,0.1-0.3,0.2l0,0.1l0,0.1v1.3h-0.3v-1.2l0-0.3l0-0.2l-0.1-0.1c-0.1,0-0.1,0-0.2,0
	c-0.1,0-0.2,0-0.3,0.1c-0.1,0-0.2,0.1-0.3,0.2v1.5h-0.3v-2h0.3v0.2c0.1-0.1,0.2-0.2,0.3-0.2c0.1,0,0.2-0.1,0.3-0.1
	c0.1,0,0.3,0,0.4,0.1c0.1,0.1,0.2,0.1,0.2,0.2c0.1-0.1,0.3-0.2,0.4-0.3c0.1-0.1,0.2-0.1,0.4-0.1c0.2,0,0.4,0.1,0.5,0.2
	c0.1,0.1,0.2,0.3,0.2,0.6V25.6z"/>
<path d="M34.2,32.1c-0.1,0-1.1,0.1-1.5,0.2c-0.5,0.1-1,0.2-1.4,0.3c-0.4,0.1-0.7,0.3-0.9,0.6c-0.2,0.3-0.3,0.6-0.3,1
	c0,0.4,0.1,0.6,0.4,0.8c0.3,0.2,0.7,0.2,1.2,0.2c0.3,0,0.7-0.1,1.1-0.2c0.3-0.1,0.6-0.3,0.8-0.4c0.1-0.1,0.3-0.3,0.3-0.4
	c0.1-0.5,0.4-1.6,0.4-1.8C34.4,32,34.4,32.1,34.2,32.1z"/>
<path d="M60.8,25.9c-0.4-0.3-1-0.4-1.8-0.4l-0.7,0c-0.4,0-0.9,0.4-1,0.8L56.8,29c-0.1,0.4,0.2,0.8,0.6,0.8h0.5c1.1,0,2-0.2,2.6-0.7
	c0.6-0.5,0.9-1.1,0.9-2C61.4,26.6,61.3,26.2,60.8,25.9z"/>
</svg>
