<?xml version="1.0" encoding="utf-8"?>
<!-- Generator: Adobe Illustrator 18.1.1, SVG Export Plug-In . SVG Version: 6.00 Build 0)  -->
<!DOCTYPE svg PUBLIC "-//W3C//DTD SVG 1.1//EN" "http://www.w3.org/Graphics/SVG/1.1/DTD/svg11.dtd">
<svg version="1.1" id="Layer_1" xmlns="http://www.w3.org/2000/svg" xmlns:xlink="http://www.w3.org/1999/xlink" x="0px" y="0px"
	 viewBox="0 0 100 64" enable-background="new 0 0 100 64" xml:space="preserve">
<path d="M16,32.4c0,1,0.5,1.7,1.4,1.7c0.6,0,1.2-0.4,1.6-1.1c0.5-0.8,0.4-1.6,0.4-2.5v-0.5C17.8,30.1,16,30.5,16,32.4z"/>
<path d="M70.9,25.8c-1.7,0-1.8,2.3-1.8,3.8c0,1.4,0,4.5,1.8,4.5c1.8,0,1.9-2.5,1.9-4c0-1,0-2.2-0.3-3.1
	C72.1,26.1,71.6,25.8,70.9,25.8z"/>
<path d="M46.3,32.4c0,1,0.5,1.7,1.4,1.7c0.6,0,1.2-0.4,1.6-1.1c0.5-0.8,0.4-1.6,0.4-2.5v-0.5C48.1,30.1,46.3,30.5,46.3,32.4z"/>
<path d="M96.7,0H3.3C1.5,0,0,1.5,0,3.3v55.8c0,1.8,1.5,3.3,3.3,3.3h93.3c1.8,0,3.3-1.5,3.3-3.3V3.3C100,1.5,98.5,0,96.7,0z
	 M49.5,26.3c-0.3-0.4-0.8-0.6-1.3-0.6c-0.9,0-1.7,0.5-1.9,1.4c0,0.2-0.2,0.4-0.4,0.4l-2.2-0.2c-0.2,0-0.4-0.2-0.3-0.5
	c0.5-2.7,3-3.5,5.2-3.5c1.1,0,2.6,0.3,3.5,1.2c1.1,1.1,1,2.5,1,4V32c0,1.1,0.5,1.6,0.9,2.1c0.1,0.2,0.2,0.5,0,0.6
	c-0.5,0.4-1.3,1.1-1.8,1.5l0,0c-0.2,0.1-0.4,0.1-0.5,0.1c-0.8-0.6-0.9-0.9-1.3-1.5c-1.3,1.3-2.2,1.7-3.8,1.7c-1.9,0-3.5-1.2-3.5-3.6
	c0-1.9,1-3.2,2.5-3.8c1.3-0.5,3-0.6,4.3-0.8V28C49.8,27.4,49.8,26.8,49.5,26.3z M25.4,24c0-0.2,0.2-0.4,0.4-0.4l2.2,0
	c0.2,0,0.4,0.2,0.4,0.4v1.5h0c0.6-1.5,1.6-2.2,3-2.2c1.4,0,2.4,0.7,3,2.2c0.6-1.5,1.8-2.2,3.2-2.2c1,0,2,0.4,2.7,1.3
	c0.7,1,0.6,2.4,0.6,3.7l0,7.5c0,0.2-0.2,0.4-0.4,0.4h-2.3c-0.2,0-0.4-0.2-0.4-0.4l0-6.3c0-0.5,0-1.7-0.1-2.2c-0.2-0.8-0.7-1-1.4-1
	c-0.6,0-1.1,0.4-1.4,1c-0.2,0.6-0.2,1.6-0.2,2.3v6.3c0,0.2-0.2,0.4-0.4,0.4H32c-0.2,0-0.4-0.2-0.4-0.4l0-6.3c0-1.3,0.2-3.3-1.4-3.3
	c-1.7,0-1.6,1.9-1.6,3.3l0,6.3c0,0.2-0.2,0.4-0.4,0.4h-2.3c-0.2,0-0.4-0.2-0.4-0.4V24z M21.8,36.3c-0.2,0.1-0.4,0.1-0.5,0.1
	c-0.8-0.6-0.9-0.9-1.3-1.5c-1.3,1.3-2.2,1.7-3.8,1.7c-1.9,0-3.5-1.2-3.5-3.6c0-1.9,1-3.2,2.5-3.8c1.3-0.5,3-0.6,4.3-0.8V28
	c0-0.6,0-1.2-0.3-1.7c-0.3-0.4-0.8-0.6-1.3-0.6c-0.9,0-1.7,0.5-1.9,1.4c0,0.2-0.2,0.4-0.4,0.4l-2.2-0.2c-0.2,0-0.4-0.2-0.3-0.5
	c0.5-2.7,3-3.5,5.2-3.5c1.1,0,2.6,0.3,3.5,1.2c1.1,1.1,1,2.5,1,4V32c0,1.1,0.5,1.6,0.9,2.1c0.1,0.2,0.2,0.5,0,0.6
	C23.1,35.1,22.3,35.9,21.8,36.3L21.8,36.3z M59,40.8c-4.3,3.2-10.6,4.9-16.1,4.9c-7.6,0-14.4-2.8-19.6-7.5c-0.4-0.4,0-0.9,0.4-0.6
	c5.6,3.2,12.5,5.2,19.6,5.2c4.8,0,10.1-1,15-3.1C59.1,39.5,59.7,40.3,59,40.8z M60.2,44c-0.4,0.3-0.7,0.1-0.5-0.3
	c0.5-1.3,1.7-4.2,1.1-4.9c-0.6-0.7-3.7-0.3-5.1-0.2c-0.4,0.1-0.5-0.3-0.1-0.6c2.5-1.7,6.6-1.2,7-0.7C63.1,38,62.5,42,60.2,44z
	 M64.5,35.5c0,0.2-0.3,0.5-0.6,0.4c-2.3-1.2-5.4-1.4-8,0c-0.3,0.1-0.5-0.1-0.5-0.4v-1.7c0-0.3,0-0.7,0.3-1.2l4.6-6.5l-4,0
	c-0.2,0-0.4-0.2-0.4-0.4V24c0-0.3,0.2-0.4,0.4-0.4l7.6,0c0.2,0,0.4,0.2,0.4,0.4l0,1.5c0,0.2-0.2,0.6-0.6,1.1l-3.9,5.6
	c1.5,0,3,0.2,4.3,0.9c0.3,0.2,0.4,0.4,0.4,0.7V35.5z M70.8,36.5c-3.4,0-5.2-2.9-5.2-6.6c0-3.7,1.9-6.6,5.2-6.6
	c3.4,0,5.3,2.9,5.3,6.7C76.1,33.7,74.1,36.5,70.8,36.5z M87.4,35.9c0,0.2-0.2,0.4-0.4,0.4h-2.3c-0.2,0-0.4-0.2-0.4-0.4v-6.4
	c0-1.3,0.2-3.2-1.4-3.2c-0.6,0-1.1,0.4-1.3,0.9c-0.3,0.7-0.4,1.4-0.4,2.2v6.4c0,0.2-0.2,0.4-0.4,0.4h-2.3c-0.2,0-0.4-0.2-0.4-0.4
	l0-11.9c0-0.2,0.2-0.4,0.4-0.4l2.1,0c0.2,0,0.4,0.1,0.4,0.3v1.8h0c0.6-1.6,1.6-2.4,3.2-2.4c1,0,2.1,0.4,2.7,1.4
	c0.6,0.9,0.6,2.5,0.6,3.7V35.9z"/>
</svg>
