<?xml version="1.0" encoding="utf-8"?>
<!-- Generator: Adobe Illustrator 18.1.1, SVG Export Plug-In . SVG Version: 6.00 Build 0)  -->
<!DOCTYPE svg PUBLIC "-//W3C//DTD SVG 1.1//EN" "http://www.w3.org/Graphics/SVG/1.1/DTD/svg11.dtd">
<svg version="1.1" id="Layer_1" xmlns="http://www.w3.org/2000/svg" xmlns:xlink="http://www.w3.org/1999/xlink" x="0px" y="0px"
	 viewBox="0 0 350 100" enable-background="new 0 0 350 100" xml:space="preserve">
<g>
	<path fill="#010101" d="M103.3,70.2c2.1,1.1,6,2.7,9.7,2.6c3.3,0,5.1-1.8,5.1-4c0-2.1-1.3-3.6-4.9-5.7c-4.5-2.6-7.8-6.2-7.8-10.9
		c0-8.3,7.1-14.2,17.5-14.2c4.5,0,8,0.9,9.9,2l-2.7,8.4c-1.6-0.8-4.3-1.6-7.4-1.6c-3.3,0-5.5,1.5-5.5,3.9c0,1.9,1.5,3.3,4.5,4.9
		c4.6,2.7,8.5,6.3,8.5,11.3c0,9.4-7.6,14.7-18.2,14.6c-4.9-0.1-9.4-1.4-11.6-2.9L103.3,70.2"/>
	<path fill="#010101" d="M132.7,80.8l11.5-60.4H156l-4.5,23.7l0.2,0.1c3.2-3.8,7.3-6.3,12.5-6.3c6.2,0,9.7,4,9.7,10.7
		c0,2.1-0.3,5.1-0.9,7.7l-4.6,24.4h-11.8l4.5-23.6c0.3-1.6,0.5-3.6,0.5-5.2c0-2.6-1-4.4-3.7-4.4c-3.8,0-7.8,4.8-9.3,12.6l-3.9,20.6
		h-12"/>
	<g>
		<path fill="#010101" d="M200.5,38c-14.2,0-23.6,12.8-23.6,27.1c0,9.1,5.7,16.5,16.3,16.5c14,0,23.4-12.5,23.4-27.1
			C216.6,46,211.7,37.9,200.5,38z M194.8,72.5c-4,0-5.7-3.4-5.7-7.7c0-6.7,3.5-17.8,9.9-17.8c4.2,0,5.6,3.6,5.6,7.1
			C204.6,61.4,201.1,72.5,194.8,72.5z"/>
	</g>
	<g>
		<path fill="#010101" d="M246.8,37.9c-4.7,0-9.3,2.5-12.5,7h-0.2l0.7-6.3h-10.4c-0.5,4.3-1.5,10.8-2.4,15.7l-8.2,43.2v0.1h11.8
			l3.3-17.5h0.3c1.3,0.8,4,1.5,6.9,1.5c13.8,0,22.9-14.2,22.9-28.6C259,45,255.4,37.9,246.8,37.9z M235.6,72.7
			c-2.2,0-3.6-0.7-4.9-1.7l2-11.1c1.3-7.3,5.2-12.2,9.3-12.2c3.6,0,4.7,3.3,4.7,6.5C246.7,61.8,242.2,72.7,235.6,72.7z"/>
	</g>
	<path fill="#010101" d="M259.4,80.8l8-41.9h11.9l-8,41.9H259.4 M274.7,33.8c-3.3,0-5.6-2.4-5.6-5.9c0-3.9,3-6.9,6.8-6.9
		c3.6,0,5.9,2.5,5.9,5.9c-0.1,4.4-3.3,6.9-6.9,6.9H274.7z"/>
	<path fill="#010101" d="M281.5,80.8l6.3-33.1h-5.5l1.7-8.9h5.5l0.3-2c0.9-5,2.8-9.9,6.9-13.4c3.2-2.7,7.4-3.9,11.6-3.9
		c2.9,0,5.1,0.4,6.4,1l-2.3,9.2c-1-0.3-2.2-0.6-3.8-0.6c-3.9,0-6.3,3.6-7,7.6l-0.4,2h8.2l-1.6,8.9h-8.1l-6.3,33.1h-11.9"/>
	<path fill="#010101" d="M323.9,38.9l1.9,18.8c0.5,4.2,0.9,7.2,1,9.9h0.2c0.9-2.8,1.8-5.5,3.5-10l7.2-18.8H350l-14.5,31
		c-5.1,10.6-10.1,18.4-15.5,23.5c-4.2,3.9-9.2,5.9-11.6,6.4l-3.3-10c2-0.7,4.5-1.7,6.7-3.3c2.7-1.9,5.1-4.5,6.4-7.1
		c0.3-0.6,0.4-1.1,0.3-2l-7.1-38.4H323.9"/>
	<path fill="#010101" d="M58.2,11.9l-3,0.9c-1.3-3.8-3.1-6.6-5.3-8.1c-1.6-1.2-3.5-1.7-5.4-1.5c-0.4-0.5-0.9-1-1.3-1.4
		c-2.2-1.7-4.9-2-8.3-0.8c-10,3.6-14.2,16.5-15.7,23l-8.7,2.7c0,0-2.1,0.6-2.5,1.2c-0.5,0.6-0.6,2.3-0.6,2.3L0,87l55.4,10.4
		l4.3-85.6C59,11.7,58.4,11.8,58.2,11.9 M44.1,16.2l-9.6,3c1.3-5,3.7-10.1,8.4-12.1C43.9,9.7,44.2,13.2,44.1,16.2z M36.1,4.1
		c2-0.7,3.6-0.7,4.8,0.1c-6.3,2.9-9,10.1-10.2,16.2L23,22.8C24.7,16.6,28.5,6.8,36.1,4.1z M41.5,46c-0.4-0.2-1-0.4-1.5-0.7
		c-0.6-0.2-1.2-0.4-1.9-0.6c-0.7-0.2-1.4-0.3-2.2-0.4c-0.8-0.1-1.6-0.1-2.5-0.1c-0.8,0-1.5,0.2-2.1,0.4c-0.6,0.2-1.2,0.5-1.6,0.9
		s-0.8,0.8-1,1.3c-0.2,0.5-0.4,1.1-0.4,1.7c0,0.5,0.1,0.9,0.2,1.4c0.2,0.4,0.4,0.9,0.8,1.3c0.4,0.4,0.8,0.9,1.4,1.3
		c0.6,0.4,1.2,0.9,2,1.4c1.1,0.7,2.1,1.4,3.2,2.3c1,0.9,2,1.9,2.9,3c0.9,1.2,1.6,2.5,2.1,3.9c0.5,1.5,0.7,3.1,0.7,4.9
		c-0.1,2.9-0.8,5.4-1.8,7.5c-1,2.1-2.5,3.7-4.2,4.8c-1.7,1.1-3.7,1.9-5.8,2.1c-2.1,0.3-4.3,0.2-6.6-0.4c0,0,0,0-0.1,0c0,0,0,0-0.1,0
		c0,0,0,0-0.1,0c0,0,0,0-0.1,0c-1.1-0.3-2.1-0.6-3.1-1c-1-0.4-1.9-0.8-2.7-1.3c-0.8-0.5-1.5-1-2.2-1.5c-0.6-0.5-1.2-1.1-1.6-1.6
		l2.5-8.4c0.4,0.4,0.9,0.8,1.5,1.2c0.6,0.4,1.3,0.9,2,1.3s1.5,0.8,2.3,1.1c0.8,0.3,1.7,0.6,2.5,0.7c0.7,0.1,1.4,0.1,2,0
		c0.6-0.1,1.1-0.4,1.5-0.7c0.4-0.3,0.7-0.7,0.9-1.2c0.2-0.5,0.3-1,0.4-1.6c0-0.6,0-1.1-0.2-1.7c-0.1-0.5-0.4-1-0.7-1.6
		c-0.3-0.5-0.8-1-1.3-1.5c-0.6-0.5-1.2-1.1-2-1.6c-1-0.7-1.9-1.5-2.7-2.4c-0.8-0.8-1.5-1.7-2.1-2.7s-1-2-1.3-3.2
		c-0.3-1.1-0.4-2.4-0.4-3.7c0.1-2.3,0.5-4.3,1.3-6.2c0.8-1.9,1.8-3.6,3.2-5c1.4-1.5,3.1-2.7,5-3.7c2-1,4.3-1.7,6.8-2
		c1.2-0.2,2.3-0.2,3.4-0.2c1.1,0,2.1,0.1,3,0.2c0.9,0.1,1.8,0.3,2.6,0.5s1.4,0.5,2,0.8L41.5,46z M47.5,15.2c0-0.4,0-0.8,0-1.1
		c-0.1-3-0.5-5.5-1.2-7.5c0.7,0.1,1.4,0.3,2.1,0.8c1.7,1.2,3,3.7,3.9,6.5L47.5,15.2z"/>
	<path fill="#010101" d="M76.1,19.2c0,0-0.1-0.4-0.3-0.6c-0.2-0.2-0.5-0.2-0.5-0.2l-7.8-0.6l-5.8-5.7c-0.2-0.2-0.5-0.3-0.7-0.3
		l-4.3,85.6l30-6.5L76.1,19.2"/>
</g>
</svg>
