<?xml version="1.0" encoding="utf-8"?>
<!-- Generator: Adobe Illustrator 18.1.1, SVG Export Plug-In . SVG Version: 6.00 Build 0)  -->
<!DOCTYPE svg PUBLIC "-//W3C//DTD SVG 1.1//EN" "http://www.w3.org/Graphics/SVG/1.1/DTD/svg11.dtd">
<svg version="1.1" id="Layer_1" xmlns="http://www.w3.org/2000/svg" xmlns:xlink="http://www.w3.org/1999/xlink" x="0px" y="0px"
	 viewBox="0 0 100 100" enable-background="new 0 0 100 100" xml:space="preserve">
<path d="M57.3,60.4c-1.7-1.6-3.9-3.2-6.1-5c-2.7-2.1-7.6-4.9-5.8-9.9c1-3,4.6-5.1,6.7-7c3.8-3.4,7.3-7.4,7.7-14.2
	c0.3-4.3-0.6-8.5-2.3-11.5c-1.7-2.9-4.1-4.9-6.4-7.3c2.9-0.4,5.1,0.5,7.5,0c0.7-0.1,1.6-0.9,2.3-1.3c2-1.2,4.1-2.1,5.8-3.2
	c0.2-0.1,1.2-0.7,0.6-0.7c-10.7,0.4-21.5-0.5-31.6,0C27.4,0.5,19.9,3,15.2,7c-4.7,4-8,11-7.5,19.3c0.3,5.1,2.8,10,6,13.2
	c4.4,4.4,11.1,6.8,20,5.8c-0.4,1.4-1,2.4-1.2,3.8c-0.4,3.6,1.1,6.4,2.3,8.2c0.5,0.7,1.3,1.1,1.3,1.9c-9.2,0.6-16.5,1.8-22.9,5
	C7.4,67.1,1.7,72.1,1.1,79.9c-0.3,3.4,0.4,6,1.6,8.3C7.9,98.4,23.7,101.8,39,99.1c6.5-1.2,12.2-3.5,16.9-7.5
	c4.5-3.7,8.2-9.2,8.3-16.1C64.4,68,60.9,63.9,57.3,60.4z M29.2,40.3c-5.7-3.5-10.4-13.6-9.8-23.2c0.4-6.5,3.8-11.2,10.5-12
	c4.3-0.5,7.6,1,10.1,3.2c4.5,3.9,8.9,14.2,8,22.9C47.2,39.1,37.6,45.5,29.2,40.3z M52.4,88.6c-7.9,9.4-31.8,6.9-37.8-3.2
	c-2.7-4.4-2.5-11.4,1.5-15.6c4.4-4.7,12-6.3,21.2-6.7c0.6,0,2.6-0.2,3.5,0c1.2,0.3,2.7,1.8,3.8,2.6c1.3,1,2.6,2,3.6,2.8
	c2.4,1.9,5.9,4.7,6.9,8.8C56.2,81.8,54.4,86.2,52.4,88.6z"/>
<path d="M85.3,42.7c0-4.5,0-9,0-13.4c-2,0-4.4,0-6.4,0c0,5.7,0,7.9,0,13.4c-4.4,0-8.9,0-13.3,0c0,2.1,0,4.2,0,6.3
	c4.5,0,8.8,0,13.3,0c0,4.5,0,9.1,0,13.6c2.1,0,4.3,0,6.4,0c0-4.5,0-9.1,0-13.6c4.5,0,9.1,0,13.6,0c0-2.1,0-4.2,0-6.3
	C94.4,42.7,89.8,42.7,85.3,42.7z"/>
</svg>
