<?xml version="1.0" encoding="utf-8"?>
<!-- Generator: Adobe Illustrator 18.1.1, SVG Export Plug-In . SVG Version: 6.00 Build 0)  -->
<!DOCTYPE svg PUBLIC "-//W3C//DTD SVG 1.1//EN" "http://www.w3.org/Graphics/SVG/1.1/DTD/svg11.dtd">
<svg version="1.1" id="Layer_1" xmlns="http://www.w3.org/2000/svg" xmlns:xlink="http://www.w3.org/1999/xlink" x="0px" y="0px"
	 viewBox="0 0 100 100" enable-background="new 0 0 100 100" xml:space="preserve">
<path d="M88.1,0H11.9C5.3,0,0,5.4,0,11.9v76.1C0,94.7,5.3,100,11.9,100h76.1c6.6,0,11.9-5.3,11.9-11.9V11.9C100,5.4,94.7,0,88.1,0z
	 M68.4,14.8c0-2.1,1.7-3.9,3.9-3.9h12.1c2.1,0,3.9,1.7,3.9,3.9V27c0,2.1-1.7,3.9-3.9,3.9H72.3c-2.1,0-3.9-1.7-3.9-3.9V14.8z
	 M50.1,30c10.9,0,19.7,8.8,19.7,19.6c0,10.9-8.8,19.7-19.7,19.7c-10.9,0-19.7-8.8-19.7-19.7C30.5,38.8,39.3,30,50.1,30z M88.6,84.6
	c0,2.2-1.8,4-4,4H15.4c-2.2,0-4-1.8-4-4V42h8.3c-0.6,2.4-0.9,5-0.9,7.6c0,17.3,14,31.3,31.3,31.3c17.3,0,31.3-14,31.3-31.3
	c0-2.6-0.3-5.2-0.9-7.6h8V84.6z"/>
</svg>
