<?xml version="1.0" encoding="utf-8"?>
<!-- Generator: Adobe Illustrator 18.1.1, SVG Export Plug-In . SVG Version: 6.00 Build 0)  -->
<!DOCTYPE svg PUBLIC "-//W3C//DTD SVG 1.1//EN" "http://www.w3.org/Graphics/SVG/1.1/DTD/svg11.dtd">
<svg version="1.1" id="Layer_1" xmlns="http://www.w3.org/2000/svg" xmlns:xlink="http://www.w3.org/1999/xlink" x="0px" y="0px"
	 viewBox="0 0 100 100" enable-background="new 0 0 100 100" xml:space="preserve">
<path d="M37.2,80.1c0-4.2,5.5-7.7,12.3-7.7c6.8,0,12.3,3.4,12.3,7.7c0,4.2-5.5,7.7-12.3,7.7C42.7,87.7,37.2,84.3,37.2,80.1
	 M39.9,23.8c0-5.9,3.8-10.7,8.4-10.7s8.4,4.8,8.4,10.7c0,5.9-3.8,10.7-8.4,10.7S39.9,29.7,39.9,23.8 M60.1,4.6
	c-3.5-2.1-7.6-3.4-12-3.4c-13,0-23.5,10.5-23.5,23.5c0,8.6,4.7,16.1,11.6,20.2c-2.7,2.7-7.9,8.3-0.2,18.7
	c-7.6,3.5-12.6,9.7-12.6,16.7c0,10.9,12,19.7,26.7,19.7c14.7,0,26.7-8.8,26.7-19.7c0-10.5-11-18.9-24.9-19.6
	c-3.4-2.1-6.5-6.3-2.6-12.5c12.4-0.6,22.4-10.8,22.4-23.4c0-3.4-0.7-6.5-2-9.4h7.1V0C74.1,2.6,65,4.1,60.1,4.6"/>
</svg>
