<?xml version="1.0" encoding="utf-8"?>
<!-- Generator: Adobe Illustrator 18.1.1, SVG Export Plug-In . SVG Version: 6.00 Build 0)  -->
<!DOCTYPE svg PUBLIC "-//W3C//DTD SVG 1.1//EN" "http://www.w3.org/Graphics/SVG/1.1/DTD/svg11.dtd">
<svg version="1.1" id="Layer_1" xmlns="http://www.w3.org/2000/svg" xmlns:xlink="http://www.w3.org/1999/xlink" x="0px" y="0px"
	 viewBox="0 0 100 100" enable-background="new 0 0 100 100" xml:space="preserve">
<path d="M65.7,83.7c-2.8,0-5.4-0.7-7.6-2c-1.7-1-2.8-2.3-3.4-3.9c-0.6-1.6-0.9-5.4-0.9-11.2V41h23.7V25.3H53.8V0H39.5
	c-0.6,5.2-1.8,9.4-3.5,12.7c-1.7,3.3-3.9,6.2-6.7,8.6c-2.8,2.4-6.2,4.2-10.1,5.5V41h11.1V76c0,4.6,0.5,8.1,1.4,10.5
	c0.9,2.4,2.7,4.7,5.2,6.8c2.5,2.1,5.5,3.8,9,4.9c3.5,1.2,7.5,1.7,12.1,1.7c4,0,7.8-0.4,11.2-1.2c3.5-0.8,7.3-2.2,11.6-4.2V78.8
	C75.8,82.1,70.8,83.7,65.7,83.7z"/>
</svg>
