<?xml version="1.0" encoding="utf-8"?>
<!-- Generator: Adobe Illustrator 18.1.1, SVG Export Plug-In . SVG Version: 6.00 Build 0)  -->
<!DOCTYPE svg PUBLIC "-//W3C//DTD SVG 1.1//EN" "http://www.w3.org/Graphics/SVG/1.1/DTD/svg11.dtd">
<svg version="1.1" id="Layer_1" xmlns="http://www.w3.org/2000/svg" xmlns:xlink="http://www.w3.org/1999/xlink" x="0px" y="0px"
	 viewBox="0 0 100 100" enable-background="new 0 0 100 100" xml:space="preserve">
<path d="M57.8,73.5c-6.3,0-12.3-3.4-14.3-7.3c0,0-3.4,13.5-4.1,16.1c-1.2,4.4-3.6,8.9-5.8,12.3c-3.4,7.5-7.5,7.5-7-2.6
	c-0.2-4,0-8.8,1-13.2c1.1-4.8,7.5-31.9,7.5-31.9s-1.9-3.7-1.9-9.2c0-8.7,5-15.1,11.3-15.1c5.3,0,7.9,4,7.9,8.8
	c0,5.3-3.4,13.3-5.2,20.7c-1.5,6.2,3.1,11.2,9.2,11.2c11.1,0,18.5-14.2,18.5-31.1c0-12.8-8.6-22.4-24.3-22.4C33.1,10,22,23.2,22,38
	c0,5.1,1.5,8.7,3.9,11.5c1.1,1.3,1.2,1.8,0.8,3.3c-0.3,1.1-0.9,3.7-1.2,4.7c-0.4,1.5-1.6,2-2.9,1.5c-8.2-3.3-12-12.3-12-22.3
	C10.6,19.9,24.6,0,52.4,0c22.3,0,37,16.1,37,33.5C89.4,56.4,76.6,73.5,57.8,73.5z"/>
</svg>
