<?xml version="1.0" encoding="utf-8"?>
<!-- Generator: Adobe Illustrator 18.1.1, SVG Export Plug-In . SVG Version: 6.00 Build 0)  -->
<!DOCTYPE svg PUBLIC "-//W3C//DTD SVG 1.1//EN" "http://www.w3.org/Graphics/SVG/1.1/DTD/svg11.dtd">
<svg version="1.1" id="Layer_1" xmlns="http://www.w3.org/2000/svg" xmlns:xlink="http://www.w3.org/1999/xlink" x="0px" y="0px"
	 viewBox="0 0 100 100" enable-background="new 0 0 100 100" xml:space="preserve">
<path d="M50,0C22.4,0,0,22.4,0,50c0,10.7,3.4,20.6,9.1,28.7l0.3,0.7L5.3,98l20.9-3.8l1,0.3C34,98,41.8,100,50,100
	c27.6,0,50-22.4,50-50C100,22.4,77.6,0,50,0z M78,50.2c0,15.5-11.1,26.9-30,26.9H28V23.6h20.3c18.8,0,29.7,11,29.7,26.5V50.2z"/>
<path d="M48.5,36.8h-5.9V64h5.9C57.2,64,63,59.1,63,50.5v-0.1C63,41.7,57.2,36.8,48.5,36.8z"/>
</svg>
