<?xml version="1.0" encoding="utf-8"?>
<!-- Generator: Adobe Illustrator 18.1.1, SVG Export Plug-In . SVG Version: 6.00 Build 0)  -->
<!DOCTYPE svg PUBLIC "-//W3C//DTD SVG 1.1//EN" "http://www.w3.org/Graphics/SVG/1.1/DTD/svg11.dtd">
<svg version="1.1" id="Layer_1" xmlns="http://www.w3.org/2000/svg" xmlns:xlink="http://www.w3.org/1999/xlink" x="0px" y="0px"
	 viewBox="0 0 100 100" enable-background="new 0 0 100 100" xml:space="preserve">
<path d="M58.9,67.6l-1.1,0.3l-1.1,0.8V86c0.4,0.4,0.8,0.8,1.2,1c0.4,0.2,0.8,0.3,1.2,0.3c0.6,0,1.1-0.2,1.4-0.6
	c0.3-0.4,0.5-1,0.5-1.9V70.5c0-0.9-0.2-1.7-0.6-2.1C60.2,67.9,59.6,67.6,58.9,67.6z"/>
<path d="M92.6,57.7c-0.7-6.4-6.9-11.6-13.4-11.6c-20.3,0-42.4,0-58.4,0c-6.5,0-12.7,5.2-13.3,11.6C6.6,62.8,6.2,67.9,6.2,73
	c0,5.1,0.3,10.2,1.2,15.4c0.7,6.4,6.9,11.6,13.3,11.6c17.4,0,40.3,0,58.4,0c6.5,0,12.7-5.2,13.4-11.6c0.9-5.1,1.2-10.2,1.2-15.4
	C93.8,67.9,93.5,62.8,92.6,57.7z M26,91.2h-5.8v-32h-6v-5.4H32v5.4h-6V91.2z M46.6,91.2h-5.1v-3.1c-0.9,1.1-1.9,2-3,2.6
	c-1,0.6-2,0.9-3,0.9c-1.2,0-2.1-0.4-2.7-1.2c-0.6-0.8-0.9-2.1-0.9-3.7V63.6h5.1v21.2c0,0.7,0.1,1.1,0.3,1.4c0.2,0.3,0.6,0.4,1,0.4
	c0.4,0,0.8-0.2,1.4-0.6c0.6-0.4,1.1-0.9,1.6-1.5v-21h5.1V91.2z M66.4,85.5c0,2-0.4,3.5-1.2,4.5c-0.8,1-2,1.6-3.5,1.6
	c-1,0-1.9-0.2-2.7-0.6c-0.8-0.4-1.5-1-2.2-1.9v2.1h-5.2V53.8h5.2v12.1c0.7-0.8,1.4-1.5,2.2-1.9c0.8-0.4,1.6-0.7,2.4-0.7
	c1.6,0,2.9,0.6,3.7,1.8c0.9,1.2,1.3,2.9,1.3,5.2V85.5z M85.4,78h-9.8v5.2c0,1.4,0.2,2.5,0.5,3c0.3,0.6,0.9,0.8,1.7,0.8
	c0.8,0,1.4-0.2,1.8-0.7c0.3-0.5,0.5-1.5,0.5-3.1v-1.9h5.3v2.1c0,2.8-0.6,5-1.9,6.4c-1.3,1.4-3.2,2.2-5.8,2.2c-2.3,0-4.1-0.8-5.4-2.3
	c-1.3-1.5-2-3.6-2-6.3V71c0-2.4,0.7-4.3,2.2-5.9c1.4-1.5,3.3-2.3,5.6-2.3c2.3,0,4.2,0.7,5.4,2.1c1.3,1.4,1.9,3.4,1.9,6V78z"/>
<path d="M77.8,67.7c-0.8,0-1.4,0.2-1.7,0.7c-0.4,0.5-0.5,1.3-0.5,2.5v2.8h4.5V71c0-1.2-0.2-2-0.5-2.5C79.2,68,78.6,67.7,77.8,67.7z"
	/>
<polygon points="34.3,0 30.6,15.3 30.2,15.3 26.4,0 20.4,0 27.5,23.1 27.5,38.3 33.4,38.3 33.4,22.4 40.3,0 "/>
<path d="M47.4,9.1c-2.3,0-4.2,0.6-5.6,1.9c-1.4,1.3-2.1,3-2.1,5.1l0,14.3c0,2.4,0.7,4.2,2,5.6c1.3,1.4,3.1,2.1,5.4,2.1
	c2.3,0,4.2-0.7,5.5-2c1.3-1.3,2-3.2,2-5.6V16.3c0-2.1-0.7-3.8-2-5.2C51.3,9.8,49.6,9.1,47.4,9.1z M49.5,31c0,0.7-0.2,1.3-0.6,1.7
	c-0.4,0.4-1,0.6-1.7,0.6c-0.7,0-1.2-0.2-1.6-0.6c-0.4-0.4-0.6-1-0.6-1.8v-15c0-0.6,0.2-1.1,0.6-1.5c0.4-0.4,0.9-0.5,1.5-0.5
	c0.7,0,1.2,0.2,1.6,0.5c0.4,0.4,0.6,0.9,0.6,1.5V31z"/>
<path d="M68.6,9.8v21c-0.5,0.6-1,1.1-1.6,1.5c-0.6,0.4-1.1,0.6-1.4,0.6c-0.5,0-0.8-0.1-1-0.4c-0.2-0.3-0.3-0.8-0.3-1.4V9.8h-5.1
	v23.1c0,1.6,0.3,2.9,0.9,3.7c0.6,0.8,1.5,1.2,2.7,1.2c1,0,2-0.3,3-0.9c1-0.6,2-1.4,3-2.6v3h5.1V9.8H68.6z"/>
</svg>
