<?xml version="1.0" encoding="utf-8"?>
<!-- Generator: Adobe Illustrator 18.1.1, SVG Export Plug-In . SVG Version: 6.00 Build 0)  -->
<!DOCTYPE svg PUBLIC "-//W3C//DTD SVG 1.1//EN" "http://www.w3.org/Graphics/SVG/1.1/DTD/svg11.dtd">
<svg version="1.1" id="Layer_1" xmlns="http://www.w3.org/2000/svg" xmlns:xlink="http://www.w3.org/1999/xlink" x="0px" y="0px"
	 viewBox="0 0 100 100" enable-background="new 0 0 100 100" xml:space="preserve">
<path d="M24.5,82.9c5.5-11,15.4-20.1,27.9-25.7c1.2-0.5,2.7-1,4.5-1.4c1.5,4.1,2.8,8.4,4,12.8c1.8,6.9,3.1,13.7,3.9,20.3
	c-4.6,1.7-9.6,2.7-14.8,2.7C40.4,91.7,31.5,88.4,24.5,82.9 M68.6,64.5c-0.9-3.4-1.9-6.7-3-9.9c8.2-0.7,18-0.6,25.7,0
	C90,67.4,82.8,78.4,72.5,85C71.7,78.3,70.5,71.5,68.6,64.5 M15.6,48.1c13.1-0.2,25.3-2.2,35.8-5.6c1,2.1,1.9,4.2,2.8,6.3
	c-1.4,0.3-2.7,0.7-3.7,1.1c-14.4,6-25.6,15.7-31.8,27.5C12.3,70.2,8.3,60.6,8.3,50c0-0.7,0-1.3,0.1-2c1.9,0.1,3.9,0.1,5.8,0.1
	C14.7,48.1,15.1,48.1,15.6,48.1 M59.7,39.5c10-4.3,17.7-10,22.1-16.5c5.6,6.6,9.2,15,9.8,24.2c-9-0.5-19.8-0.5-28.4,0.3
	C62,44.8,60.9,42.1,59.7,39.5 M9.6,39.7c3-11.7,10.9-21.5,21.5-26.9c6,6,11.7,13.6,16.6,22.5c-9.4,2.9-20.2,4.5-31.7,4.5
	C13.9,39.9,11.8,39.9,9.6,39.7 M39.7,9.7C43,8.8,46.4,8.3,50,8.3c10.1,0,19.4,3.6,26.6,9.6C72.1,23.7,65,28.6,56.1,32.4
	C51.2,23.5,45.7,15.7,39.7,9.7 M0,50c0,27.6,22.4,50,50,50c27.6,0,50-22.4,50-50c0-27.6-22.4-50-50-50C22.4,0,0,22.4,0,50"/>
</svg>
