<?xml version="1.0" encoding="utf-8"?>
<!-- Generator: Adobe Illustrator 18.1.1, SVG Export Plug-In . SVG Version: 6.00 Build 0)  -->
<!DOCTYPE svg PUBLIC "-//W3C//DTD SVG 1.1//EN" "http://www.w3.org/Graphics/SVG/1.1/DTD/svg11.dtd">
<svg version="1.1" id="Layer_1" xmlns="http://www.w3.org/2000/svg" xmlns:xlink="http://www.w3.org/1999/xlink" x="0px" y="0px"
	 viewBox="0 0 100 100" enable-background="new 0 0 100 100" xml:space="preserve">
<rect x="1.3" y="33.3" width="22" height="64.5"/>
<path d="M12.1,2.2C4.8,2.2,0,7,0,13.4c0,6.2,4.6,11.1,11.8,11.1H12c7.5,0,12.1-5,12.1-11.1C24,7,19.5,2.2,12.1,2.2z"/>
<path d="M75.3,31.8C63.9,31.8,58.8,38,56,42.4v0.2h-0.1l0.1-0.2v-9.1H34.6c0.3,6,0,64.5,0,64.5H56v-36c0-1.9,0.1-3.9,0.7-5.2
	c1.5-3.9,5.1-7.8,11-7.8c7.8,0,10.9,5.9,10.9,14.6v34.5H100v-37C100,41,89.4,31.8,75.3,31.8z"/>
</svg>
