<?xml version="1.0" encoding="utf-8"?>
<!-- Generator: Adobe Illustrator 18.1.1, SVG Export Plug-In . SVG Version: 6.00 Build 0)  -->
<!DOCTYPE svg PUBLIC "-//W3C//DTD SVG 1.1//EN" "http://www.w3.org/Graphics/SVG/1.1/DTD/svg11.dtd">
<svg version="1.1" id="Layer_1" xmlns="http://www.w3.org/2000/svg" xmlns:xlink="http://www.w3.org/1999/xlink" x="0px" y="0px"
	 viewBox="0 0 350 100" enable-background="new 0 0 350 100" xml:space="preserve">
<g>
	<path d="M101.6,70.2c2.1,1.1,6,2.7,9.7,2.6c3.3,0,5.1-1.8,5.1-4c0-2.1-1.3-3.6-4.9-5.7c-4.5-2.6-7.8-6.2-7.8-10.9
		c0-8.3,7.1-14.2,17.5-14.2c4.5,0,8,0.9,9.9,2l-2.7,8.4c-1.6-0.8-4.3-1.6-7.4-1.6c-3.3,0-5.5,1.5-5.5,3.9c0,1.9,1.5,3.3,4.5,4.9
		c4.6,2.7,8.5,6.3,8.5,11.3c0,9.4-7.6,14.7-18.2,14.6c-4.9-0.1-9.4-1.4-11.6-2.9L101.6,70.2"/>
	<path d="M131,80.8l11.5-60.4h11.8l-4.5,23.7l0.2,0.1c3.2-3.8,7.3-6.3,12.5-6.3c6.2,0,9.7,4,9.7,10.7c0,2.1-0.3,5.1-0.9,7.7
		l-4.6,24.4h-11.8l4.5-23.6c0.3-1.6,0.5-3.6,0.5-5.2c0-2.6-1-4.4-3.7-4.4c-3.8,0-7.8,4.8-9.3,12.6l-3.9,20.6H131"/>
	<path d="M214.8,54.5c0,14.6-9.4,27.1-23.4,27.1c-10.6,0-16.3-7.4-16.3-16.5c0-14.3,9.4-27.1,23.6-27.1
		C209.9,37.9,214.8,46,214.8,54.5 M187.3,64.8c0,4.3,1.7,7.7,5.7,7.7c6.3,0,9.8-11.1,9.8-18.4c0-3.5-1.4-7.1-5.6-7.1
		C190.8,47,187.3,58.1,187.3,64.8z"/>
	<path d="M212,97.5l8.2-43.2c0.9-4.9,1.9-11.4,2.4-15.7h10.4l-0.7,6.3h0.2c3.2-4.5,7.8-7,12.5-7c8.6,0,12.2,7.1,12.2,15.1
		c0,14.4-9.1,28.6-22.9,28.6c-2.9,0-5.6-0.7-6.9-1.5h-0.3l-3.3,17.5H212 M228.9,71c1.3,1,2.7,1.7,4.9,1.7c6.6,0,11.1-10.9,11.1-18.5
		c0-3.2-1.1-6.5-4.7-6.5c-4.1,0-8,4.9-9.3,12.2L228.9,71z"/>
	<path d="M257.6,80.8l8-41.9h11.9l-8,41.9H257.6 M272.9,33.8c-3.3,0-5.6-2.4-5.6-5.9c0-3.9,3-6.9,6.8-6.9c3.6,0,5.9,2.5,5.9,5.9
		c-0.1,4.4-3.3,6.9-6.9,6.9H272.9z"/>
	<path d="M279.7,80.8l6.3-33.1h-5.5l1.7-8.9h5.5l0.3-2c0.9-5,2.8-9.9,6.9-13.4c3.2-2.7,7.4-3.9,11.6-3.9c2.9,0,5.1,0.4,6.4,1
		l-2.3,9.2c-1-0.3-2.2-0.6-3.8-0.6c-3.9,0-6.3,3.6-7,7.6l-0.4,2h8.2l-1.6,8.9h-8.1l-6.3,33.1H279.7"/>
	<path d="M322.1,38.9l1.9,18.8c0.5,4.2,0.9,7.2,1,9.9h0.2c0.9-2.8,1.8-5.5,3.5-10l7.2-18.8h12.3l-14.5,31
		c-5.1,10.6-10.1,18.4-15.5,23.5c-4.2,3.9-9.2,5.9-11.6,6.4l-3.3-10c2-0.7,4.5-1.7,6.7-3.3c2.7-1.9,5.1-4.5,6.4-7.1
		c0.3-0.6,0.4-1.1,0.3-2l-7.1-38.4H322.1"/>
	<path d="M56.5,11.9l-3,0.9c-1.3-3.8-3.1-6.6-5.3-8.1c-1.6-1.2-3.5-1.7-5.4-1.5c-0.4-0.5-0.9-1-1.3-1.4c-2.2-1.7-4.9-2-8.3-0.8
		C23.2,4.6,19,17.5,17.5,24l-8.7,2.7c0,0-2.1,0.6-2.5,1.2c-0.5,0.6-0.6,2.3-0.6,2.3L-1.7,87l55.4,10.4l4.3-85.6
		C57.3,11.7,56.7,11.8,56.5,11.9 M42.4,16.2l-9.6,3c1.3-5,3.7-10.1,8.4-12.1C42.2,9.7,42.5,13.2,42.4,16.2z M34.4,4.1
		c2-0.7,3.6-0.7,4.8,0.1c-6.3,2.9-9,10.1-10.2,16.2l-7.7,2.4C23,16.6,26.8,6.8,34.4,4.1z M39.8,46c-0.4-0.2-1-0.4-1.5-0.7
		c-0.6-0.2-1.2-0.4-1.9-0.6c-0.7-0.2-1.4-0.3-2.2-0.4c-0.8-0.1-1.6-0.1-2.5-0.1c-0.8,0-1.5,0.2-2.1,0.4c-0.6,0.2-1.2,0.5-1.6,0.9
		c-0.4,0.4-0.8,0.8-1,1.3c-0.2,0.5-0.4,1.1-0.4,1.7c0,0.5,0.1,0.9,0.2,1.4c0.2,0.4,0.4,0.9,0.8,1.3c0.4,0.4,0.8,0.9,1.4,1.3
		c0.6,0.4,1.2,0.9,2,1.4c1.1,0.7,2.1,1.4,3.2,2.3c1,0.9,2,1.9,2.9,3c0.9,1.2,1.6,2.5,2.1,3.9c0.5,1.5,0.7,3.1,0.7,4.9
		c-0.1,2.9-0.8,5.4-1.8,7.5c-1,2.1-2.5,3.7-4.2,4.8c-1.7,1.1-3.7,1.9-5.8,2.1c-2.1,0.3-4.3,0.2-6.6-0.4c0,0,0,0-0.1,0c0,0,0,0-0.1,0
		c0,0,0,0-0.1,0c0,0,0,0-0.1,0c-1.1-0.3-2.1-0.6-3.1-1c-1-0.4-1.9-0.8-2.7-1.3c-0.8-0.5-1.5-1-2.2-1.5c-0.6-0.5-1.2-1.1-1.6-1.6
		l2.5-8.4c0.4,0.4,0.9,0.8,1.5,1.2c0.6,0.4,1.3,0.9,2,1.3c0.7,0.4,1.5,0.8,2.3,1.1c0.8,0.3,1.7,0.6,2.5,0.7c0.7,0.1,1.4,0.1,2,0
		c0.6-0.1,1.1-0.4,1.5-0.7c0.4-0.3,0.7-0.7,0.9-1.2c0.2-0.5,0.3-1,0.4-1.6c0-0.6,0-1.1-0.2-1.7c-0.1-0.5-0.4-1-0.7-1.6
		c-0.3-0.5-0.8-1-1.3-1.5c-0.6-0.5-1.2-1.1-2-1.6c-1-0.7-1.9-1.5-2.7-2.4c-0.8-0.8-1.5-1.7-2.1-2.7c-0.6-1-1-2-1.3-3.2
		c-0.3-1.1-0.4-2.4-0.4-3.7c0.1-2.3,0.5-4.3,1.3-6.2c0.8-1.9,1.8-3.6,3.2-5c1.4-1.5,3.1-2.7,5-3.7c2-1,4.3-1.7,6.8-2
		c1.2-0.2,2.3-0.2,3.4-0.2c1.1,0,2.1,0.1,3,0.2c0.9,0.1,1.8,0.3,2.6,0.5c0.8,0.2,1.4,0.5,2,0.8L39.8,46z M45.8,15.2
		c0-0.4,0-0.8,0-1.1c-0.1-3-0.5-5.5-1.2-7.5c0.7,0.1,1.4,0.3,2.1,0.8c1.7,1.2,3,3.7,3.9,6.5L45.8,15.2z"/>
	<path d="M74.4,19.2c0,0-0.1-0.4-0.3-0.6c-0.2-0.2-0.5-0.2-0.5-0.2l-7.8-0.6l-5.8-5.7c-0.2-0.2-0.5-0.3-0.7-0.3L55,97.4l30-6.5
		L74.4,19.2"/>
</g>
</svg>
